<svg version="1.0" id="Ebene_1" xmlns="http://www.w3.org/2000/svg" xmlns:xlink="http://www.w3.org/1999/xlink" x="0px" y="0px"
	 viewBox="0 0 17 24" style="enable-background:new 0 0 17 24;" xml:space="preserve">
<style type="text/css">
	.st0{fill:#7ece96;}
</style>
<g id="Polygon_5" transform="translate(0 24) rotate(-90)">
	<path class="st0" d="M12,2.2c2,0,3,2,4,3.5c0.9,1.3,1.8,2.5,2.7,3.8c0.1,0.1,0.1,0.2,0.2,0.3c0.3,0.4,0.5,0.7,0.8,1.1
		c0.3,0.4,0.5,0.8,0.8,1.1c0.1,0.1,0.1,0.1,0.2,0.2c0,0.1,0.1,0.1,0.1,0.2c0.8,1.3-0.9,2-1.7,1c-0.3-0.4-0.6-0.9-0.9-1.3
		c-1.3-1.9-2.7-3.8-4-5.7c-0.6-0.9-1.7-3.1-2.9-1.8c-1.2,1.2-2.1,2.9-3,4.3c-1,1.5-2.1,3-3.2,4.5c-1,1.6-2.6,0.4-1.8-1
		c0,0,0.1-0.1,0.1-0.1l0,0c0,0,0,0,0,0c0.3-0.5,0.6-0.9,1-1.4c0.3-0.5,0.7-1,1-1.4c1.4-2,2.7-4.2,4.3-6.1c0.3-0.4,0.6-0.7,1.1-0.9
		C11.1,2.3,11.5,2.2,12,2.2z"/>
</g>
</svg>
