<svg version="1.0" id="Ebene_1" xmlns="http://www.w3.org/2000/svg" xmlns:xlink="http://www.w3.org/1999/xlink" x="0px" y="0px"
	 viewBox="0 0 24.5 21.8" style="enable-background:new 0 0 24.5 21.8;" xml:space="preserve">
<style type="text/css">
	.st0{fill:#3B3B3B;}
</style>
<path class="st0" d="M22.5,2.2c-1.3-1.4-3-2.2-4.9-2.2c0,0,0,0-0.1,0c-1.4,0-2.8,0.5-3.9,1.3c-0.5,0.4-1,0.9-1.4,1.5
	c-0.4-0.5-0.9-1-1.4-1.5C9.7,0.5,8.3,0,6.9,0c0,0,0,0-0.1,0C5,0,3.2,0.8,2,2.2C0.7,3.6,0,5.5,0,7.4c0.1,2.2,0.9,4.4,2.4,6
	c1.8,2,3.9,3.9,6,5.6c0.8,0.7,1.8,1.5,2.7,2.4c0.3,0.2,0.7,0.4,1,0.4c0.4,0,0.7-0.1,1-0.4c1-0.9,1.9-1.7,2.8-2.4
	c2.1-1.7,4.2-3.6,6-5.7c1.5-1.6,2.4-3.8,2.4-6C24.5,5.5,23.8,3.6,22.5,2.2z M6.9,1.7C6.9,1.7,6.9,1.7,6.9,1.7c1,0,2,0.3,2.8,1
	c0.6,0.5,1.2,1.1,1.6,1.9c0.1,0.1,0.2,0.3,0.4,0.4c0.5,0.3,1.1,0.1,1.4-0.4c0.4-0.7,1-1.3,1.6-1.9c0.8-0.6,1.8-1,2.8-1c0,0,0,0,0,0
	c1.4,0,2.7,0.6,3.7,1.6c1,1.1,1.5,2.6,1.5,4.1c-0.1,1.8-0.8,3.6-2,4.9c-1.8,2-3.7,3.8-5.8,5.4c-0.8,0.7-1.7,1.5-2.7,2.3
	c-0.9-0.8-1.9-1.6-2.7-2.3c-2.1-1.7-4-3.5-5.8-5.4c-1.3-1.3-2-3.1-2-4.9c0-1.5,0.5-3,1.5-4.1c0.9-1,2.2-1.6,3.5-1.6v0L6.9,1.7z"/>
</svg>
