<svg version="1.1" id="Ebene_1" xmlns="http://www.w3.org/2000/svg" xmlns:xlink="http://www.w3.org/1999/xlink" x="0px" y="0px"
	 viewBox="0 0 22.8 20.3" style="enable-background:new 0 0 22.8 20.3;" xml:space="preserve">
<style type="text/css">
	.st0{fill:#3B3B3B;stroke:#3B3B3B;stroke-width:0.3;}
</style>
<path id="Pfad_316" class="st0" d="M11.4,20.1c-0.3,0-0.6-0.1-0.9-0.3C9.6,19,8.7,18.3,8,17.6l0,0c-2-1.6-3.9-3.3-5.6-5.2
	C1,10.9,0.2,8.9,0.2,6.9c0-1.8,0.6-3.5,1.8-4.8c1.2-1.3,2.8-2,4.5-2C7.7,0.1,9,0.6,10,1.4c0.5,0.4,1,0.9,1.4,1.5
	c0.4-0.6,0.9-1.1,1.4-1.5c1-0.8,2.3-1.2,3.5-1.2c1.7,0,3.3,0.7,4.5,2c1.2,1.3,1.8,3,1.8,4.8c-0.1,2-0.8,4-2.2,5.5
	c-1.7,1.9-3.6,3.6-5.6,5.2c-0.8,0.7-1.7,1.4-2.6,2.2C12,20,11.7,20.2,11.4,20.1z"/>
</svg>
