<?xml version="1.0" encoding="utf-8"?>
<!-- Generator: Adobe Illustrator 23.0.1, SVG Export Plug-In . SVG Version: 6.00 Build 0)  -->
<svg version="1.0" id="Ebene_1" xmlns="http://www.w3.org/2000/svg" xmlns:xlink="http://www.w3.org/1999/xlink" x="0px" y="0px"
	 viewBox="0 0 22.5 24.6" style="enable-background:new 0 0 22.5 24.6;" xml:space="preserve">
<style type="text/css">
	.st0{fill:#353535;}
</style>
<path class="st0" d="M14.2,4.2H8.3c-0.5,0-0.9-0.3-0.9-0.7s0.4-0.7,0.9-0.7h5.8c0.5,0,0.9,0.3,0.9,0.7S14.7,4.2,14.2,4.2z"/>
<path class="st0" d="M17.8,2.8C17.8,2.8,17.8,2.8,17.8,2.8c-0.4,0-0.8,0.3-0.8,0.8c0,0,0,0,0,0c0,0.4,0.4,0.8,0.8,0.8c0,0,0,0,0,0
	c1.7,0,3.1,1.3,3.1,3v0.4H1.6V7.3c0-1.7,1.4-3,3.1-3c0,0,0,0,0,0c0.4,0,0.8-0.3,0.8-0.8c0,0,0,0,0,0c0-0.4-0.4-0.8-0.8-0.8
	C2.1,2.8,0,4.8,0,7.3v12.7c0,2.5,2.1,4.5,4.7,4.5h13.1c2.5,0,4.6-2,4.7-4.5V7.3C22.4,4.8,20.3,2.8,17.8,2.8z M20.9,20.1
	c0,1.7-1.4,3-3.1,3H4.7c-1.7,0-3.1-1.3-3.1-3V9.1h19.3V20.1C20.9,20.1,20.9,20.1,20.9,20.1z"/>
<path class="st0" d="M17.1,14.7H5.3c-0.4,0-0.7-0.3-0.8-0.7c0-0.4,0.4-0.7,0.8-0.7h11.8c0.4,0,0.7,0.3,0.8,0.7
	C17.9,14.4,17.5,14.8,17.1,14.7z"/>
<path class="st0" d="M14.2,18.9H8.3c-0.4,0-0.8-0.3-0.9-0.7c0.1-0.4,0.5-0.7,0.9-0.7h5.9c0.4,0,0.8,0.3,0.9,0.7
	C15,18.7,14.6,19,14.2,18.9z"/>
<path class="st0" d="M6.3,6.3c-0.4,0-0.7-0.4-0.7-0.8V0.8C5.6,0.4,5.9,0,6.3,0C6.7,0,7,0.4,7,0.8v4.7C7,5.9,6.7,6.3,6.3,6.3z"/>
<path class="st0" d="M16.1,6.3c-0.4,0-0.7-0.4-0.7-0.8V0.8c0-0.4,0.3-0.8,0.7-0.8c0.4,0,0.7,0.4,0.7,0.8v4.7
	C16.9,5.9,16.6,6.3,16.1,6.3z"/>
</svg>
