<?xml version="1.0" encoding="utf-8"?>
<!-- Generator: Adobe Illustrator 23.0.3, SVG Export Plug-In . SVG Version: 6.00 Build 0)  -->
<svg version="1.1" id="Ebene_1" xmlns="http://www.w3.org/2000/svg" xmlns:xlink="http://www.w3.org/1999/xlink" x="0px" y="0px"
	 viewBox="0 0 64 64" style="enable-background:new 0 0 64 64;" xml:space="preserve">
<path d="M51.3,37.2h2.5c5,0,9-4,9-9s-4-9-9-9H8.5v14.4c0,7.5,3.8,14.1,9.7,18H1.5v3.6h3.7c0.8,4.1,4.5,7.2,8.8,7.2h32.4
	c4.3,0,8-3.1,8.8-7.2h3.7v-3.6H42C46.8,48.4,50.3,43.2,51.3,37.2z M53.8,22.9c3,0,5.4,2.4,5.4,5.4s-2.4,5.4-5.4,5.4h-2.2V22.9H53.8z
	 M51.5,55.2c-0.7,2.1-2.7,3.6-5.1,3.6H14c-2.3,0-4.3-1.5-5.1-3.6H51.5z M30.1,51.6c-9.9,0-18-8.1-18-18V22.9h36v10.8
	C48,43.6,40,51.6,30.1,51.6z" fill="#7ECE96"/>
<path d="M19.3,1.2h3.6v12.7h-3.6V1.2z" fill="#7ECE96"/>
<path d="M28.3,1.2h3.6v12.7h-3.6V1.2z" fill="#7ECE96"/>
<path d="M37.3,1.2h3.6v12.7h-3.6V1.2z" fill="#7ECE96"/>
</svg>
