<?xml version="1.0" encoding="utf-8"?>
<!-- Generator: Adobe Illustrator 23.0.1, SVG Export Plug-In . SVG Version: 6.00 Build 0)  -->
<svg version="1.0" id="Ebene_1" xmlns="http://www.w3.org/2000/svg" xmlns:xlink="http://www.w3.org/1999/xlink" x="0px" y="0px"
	 viewBox="0 0 28.2 21" style="enable-background:new 0 0 28.2 21;" xml:space="preserve">
<style type="text/css">
	.st0{fill:#7ECE96;}
</style>
<g id="Gruppe_38" transform="translate(0 0)">
	<path id="Pfad_313" class="st0" d="M26.5,5.4L26,5c-0.5-0.4-1-0.8-1.6-1.2c-0.5-0.4-1.1-0.9-1.6-1.3c-0.6-0.5-1.3-1-1.9-1.5
		c-0.1-0.1-0.2-0.1-0.3-0.2C20.2,0.3,19.5,0,18.8,0c-1,0.2-1.8,1.1-1.8,2.1v2.5h-0.1c-2.2,0-13,0.6-13,12.5c0,0.3,0.2,0.6,0.6,0.7
		c0.3,0.1,0.6-0.1,0.7-0.5c0.1-0.3,2-6.2,10.6-6.2c0.4,0,0.9,0,1.3,0v2.3c0,0.8,0.5,1.5,1.2,1.9c0.2,0.1,0.5,0.2,0.8,0.2
		c0.6-0.1,1.2-0.3,1.6-0.8c0.1-0.1,0.2-0.2,0.3-0.3c0.4-0.3,0.8-0.6,1.1-0.8c0.2-0.1,0.4-0.3,0.6-0.4c1-0.8,2-1.6,3-2.3l0.3-0.2
		c0.1-0.1,0.3-0.2,0.4-0.3c0.1-0.1,0.2-0.2,0.3-0.2c1-0.5,1.6-1.4,1.7-2.5C28.2,6.6,27.4,6,26.5,5.4z M25.8,9.2
		c-0.1,0.1-0.2,0.2-0.3,0.2c-0.1,0.1-0.3,0.2-0.4,0.3l-0.3,0.2c-1,0.8-2,1.6-3,2.3c-0.2,0.1-0.4,0.3-0.6,0.4
		c-0.4,0.3-0.7,0.6-1.1,0.8c-0.1,0.1-0.3,0.2-0.4,0.3c-0.2,0.2-0.6,0.5-0.8,0.5c-0.1,0-0.1,0-0.2,0c-0.3-0.2-0.5-0.4-0.5-0.7v-2.9
		c0-0.4-0.2-0.7-0.5-0.7c-0.7-0.1-1.3-0.1-2-0.1c-5.7,0-8.8,2.4-10.3,4.4c0.5-2.8,2.2-5.2,4.7-6.5C12.2,6.6,14.6,6,17,6
		c0.2,0,0.4,0,0.6-0.1c0,0,0-0.1,0-0.1h0.2c0.4,0,0.5-0.2,0.5-0.6V2.2c0-0.4,0.3-0.6,0.6-0.8c0.3,0,0.6,0.3,0.9,0.5
		C20,2,20.1,2.1,20.2,2.2c0.6,0.5,1.3,1,1.9,1.5c0.5,0.4,1.1,0.9,1.7,1.3c0.5,0.4,1,0.8,1.5,1.2l0.5,0.4c0.9,0.7,1.1,0.9,1.1,1.3
		C26.9,8.3,26.6,8.6,25.8,9.2L25.8,9.2z"/>
	<path id="Pfad_314" class="st0" d="M21.7,21c1.5,0.1,2.9-1.1,2.9-2.7c0-0.1,0-0.2,0-0.3v-1.8c0-0.4-0.3-0.7-0.7-0.7
		s-0.7,0.3-0.7,0.7c0,0,0,0,0,0V18c0.1,0.8-0.4,1.5-1.2,1.6c-0.1,0-0.2,0-0.3,0H3.4c-1,0.1-1.9-0.6-2-1.6V6.4c0.1-1.1,1-1.9,2-1.9
		h6.9c0.4,0,0.7-0.3,0.7-0.7s-0.3-0.7-0.7-0.7c0,0,0,0,0,0H3.4C1.6,3.1,0.1,4.5,0,6.4V18c0.1,1.8,1.7,3.1,3.4,3L21.7,21z"/>
</g>
</svg>
