<?xml version="1.0" encoding="utf-8"?>
<!-- Generator: Adobe Illustrator 23.0.1, SVG Export Plug-In . SVG Version: 6.00 Build 0)  -->
<svg version="1.0" id="Ebene_1" xmlns="http://www.w3.org/2000/svg" xmlns:xlink="http://www.w3.org/1999/xlink" x="0px" y="0px"
	 viewBox="0 0 54 54" style="enable-background:new 0 0 54 54;" xml:space="preserve">
<style type="text/css">
	.st0{fill:#E76E4A;}
	.st1{fill:#FFFFFF;}
</style>
<g id="Gruppe_67" transform="translate(-198 -594)">
	<circle id="Ellipse_283" class="st0" cx="225" cy="621" r="27"/>
	<path class="st1" d="M241,620h-14.5v-14.5c0-0.6-0.4-1-1-1c-0.6,0-1,0.4-1,1V620H210c-0.6,0-1,0.4-1,1s0.4,1,1,1h14.5v14.5
		c0,0.6,0.4,1,1,1c0.6,0,1-0.4,1-1V622H241c0.6,0,1-0.4,1-1S241.6,620,241,620z"/>
</g>
</svg>
