<?xml version="1.0" encoding="utf-8"?>
<!-- Generator: Adobe Illustrator 16.0.0, SVG Export Plug-In . SVG Version: 6.00 Build 0)  -->
<!DOCTYPE svg PUBLIC "-//W3C//DTD SVG 1.1//EN" "http://www.w3.org/Graphics/SVG/1.1/DTD/svg11.dtd">
<svg version="1.1" id="Ebene_1" xmlns="http://www.w3.org/2000/svg" xmlns:xlink="http://www.w3.org/1999/xlink" x="0px" y="0px"
	 width="1440px" height="1440px" viewBox="0 0 1440 1440" enable-background="new 0 0 1440 1440" xml:space="preserve">
<g id="Gruppe_67" transform="translate(-198 -594)">
	<path fill="#FFFFFF" d="M1594.053,1270.382H961.617V637.945c0-26.168-17.445-43.615-43.617-43.615
		c-26.17,0-43.617,17.447-43.617,43.615v632.437H241.947c-26.17,0-43.617,17.448-43.617,43.618
		c0,26.166,17.447,43.615,43.617,43.615h632.436v632.436c0,26.171,17.447,43.619,43.617,43.619
		c26.172,0,43.617-17.448,43.617-43.619v-632.436h632.436c26.17,0,43.617-17.449,43.617-43.615
		C1637.67,1287.83,1620.223,1270.382,1594.053,1270.382z"/>
</g>
</svg>
