<?xml version="1.0" encoding="utf-8"?>
<!-- Generator: Adobe Illustrator 23.0.1, SVG Export Plug-In . SVG Version: 6.00 Build 0)  -->
<svg version="1.1" id="Gruppe_458" xmlns="http://www.w3.org/2000/svg" xmlns:xlink="http://www.w3.org/1999/xlink" x="0px" y="0px"
	 viewBox="0 0 28.4 28.4" style="enable-background:new 0 0 28.4 28.4;" xml:space="preserve">
<style type="text/css">
	.st0{fill:#ffffff;}
</style>
<g id="Gruppe_457" transform="translate(0 0)">
	<g id="Gruppe_456" transform="translate(0 0)">
		<path id="Pfad_412" class="st0" d="M10.5,27.2V17.1L0.2,1.8C-0.2,1.3,0,0.6,0.5,0.2C0.7,0.1,0.9,0,1.2,0h26c0.7,0,1.2,0.5,1.2,1.2
			c0,0.2-0.1,0.5-0.2,0.6L17.9,17.1v6.3c0,0.4-0.2,0.7-0.5,0.9l-5.1,3.8c-0.5,0.4-1.3,0.3-1.7-0.2C10.6,27.7,10.5,27.5,10.5,27.2z
			 M3.4,2.4l9.2,13.7c0.1,0.2,0.2,0.4,0.2,0.7v8.1l2.7-2.1v-6c0-0.2,0.1-0.5,0.2-0.7L25,2.4L3.4,2.4z"/>
	</g>
</g>
</svg>
