<?xml version="1.0" encoding="utf-8"?>
<!-- Generator: Adobe Illustrator 23.0.1, SVG Export Plug-In . SVG Version: 6.00 Build 0)  -->
<svg version="1.0" id="Ebene_1" xmlns="http://www.w3.org/2000/svg" xmlns:xlink="http://www.w3.org/1999/xlink" x="0px" y="0px"
	 viewBox="0 0 28 28" style="enable-background:new 0 0 28 28;" xml:space="preserve">
<style type="text/css">
	.st0{fill:#7ece96;}
</style>
<path id="Pfad_320" class="st0" d="M26.9,12.9h-1C25.3,7.2,20.8,2.7,15.1,2.1v-1C15.1,0.5,14.6,0,14,0c-0.6,0-1,0.5-1.1,1.1v1
	C7.2,2.7,2.7,7.2,2.1,12.9h-1C0.5,12.9,0,13.4,0,14c0,0.6,0.5,1.1,1.1,1.1h1c0.5,5.7,5.1,10.3,10.8,10.8v1c0,0.6,0.5,1.1,1.1,1.1
	c0.6,0,1.1-0.5,1.1-1.1v-1c5.7-0.5,10.3-5.1,10.8-10.8h1c0.6,0,1.1-0.5,1.1-1.1C27.9,13.4,27.5,12.9,26.9,12.9L26.9,12.9z
	 M22.8,15.1h0.9c-0.5,4.5-4.1,8.1-8.6,8.6v-0.9c0-0.6-0.5-1.1-1.1-1.1c-0.6,0-1,0.5-1.1,1.1v0.9c-4.5-0.5-8.1-4.1-8.6-8.6h0.9
	c0.6,0,1.1-0.5,1.1-1.1c0-0.6-0.5-1-1.1-1.1H4.3c0.5-4.5,4.1-8.1,8.6-8.6v0.9c0,0.6,0.5,1.1,1.1,1.1c0.6,0,1.1-0.5,1.1-1.1V4.3
	c4.5,0.5,8.1,4.1,8.6,8.6h-0.9c-0.6,0-1.1,0.5-1.1,1.1C21.7,14.6,22.1,15.1,22.8,15.1z M14,10.7c-1.8,0-3.3,1.5-3.3,3.3
	s1.5,3.3,3.3,3.3s3.3-1.5,3.3-3.3C17.3,12.2,15.8,10.7,14,10.7z M14,15.1c-0.6,0-1.1-0.5-1.1-1.1s0.5-1.1,1.1-1.1s1.1,0.5,1.1,1.1
	l0,0C15.1,14.6,14.6,15.1,14,15.1z"/>
</svg>
