<svg version="1.0" id="Ebene_1" xmlns="http://www.w3.org/2000/svg" xmlns:xlink="http://www.w3.org/1999/xlink" x="0px" y="0px"
	 viewBox="0 0 20.2 20.2" style="enable-background:new 0 0 20.2 20.2;" xml:space="preserve">
<style type="text/css">
	.st0{fill:#7ECE96;}
</style>
<path class="st0" d="M19.1,5.5C19.1,5.5,19.1,5.5,19.1,5.5c-1.2-2.4-3.3-4.2-5.9-5.1c-2.6-0.8-5.3-0.6-7.7,0.6
	c-1.9,1-3.4,2.5-4.4,4.4c0,0,0,0,0,0c-1.4,2.9-1.4,6.3,0,9.1c0,0,0,0,0,0c1.2,2.4,3.3,4.2,5.9,5c1,0.3,2.1,0.5,3.1,0.5
	c1.6,0,3.1-0.4,4.6-1.1c1.9-1,3.4-2.5,4.4-4.4c0,0,0,0,0-0.1C20.6,11.8,20.6,8.4,19.1,5.5z M12.7,1.4c2.1,0.6,3.9,1.9,5,3.8h-3.3
	C14.1,3.9,13.5,2.6,12.7,1.4z M17.7,15c-1.2,1.8-3,3.2-5,3.8c0.8-1.1,1.5-2.4,1.8-3.8H17.7z M2.5,5.2c1.2-1.8,3-3.2,5-3.8
	C6.7,2.6,6.1,3.9,5.8,5.2H2.5z M13.9,10.6c0,1.1-0.1,2.2-0.4,3.3H6.7c-0.2-1.1-0.3-2.2-0.4-3.3H13.9z M6.3,9.6
	c0-1.1,0.1-2.2,0.4-3.3h6.9c0.2,1.1,0.3,2.2,0.4,3.3H6.3z M6.9,5.2c0.7-2.6,1.9-4.1,3.2-4.1c1.2,0,2.5,1.6,3.2,4.1H6.9z M5.8,15
	c0.3,1.4,0.9,2.7,1.8,3.8c-2.1-0.6-3.9-1.9-5-3.8H5.8z M13.3,15c-0.7,2.6-1.9,4.2-3.2,4.2h0c-1.2,0-2.5-1.6-3.2-4.2H13.3z M18.3,6.3
	c0.5,1,0.8,2.1,0.8,3.3H15c0-1.1-0.1-2.2-0.3-3.3H18.3z M19.1,10.6c-0.1,1.1-0.3,2.2-0.8,3.3h-3.6c0.2-1.1,0.3-2.2,0.3-3.3H19.1z
	 M5.2,10.6c0,1.1,0.1,2.2,0.3,3.3H1.9c-0.5-1-0.8-2.1-0.8-3.3H5.2z M5.6,6.3C5.4,7.4,5.3,8.5,5.2,9.6H1.1c0.1-1.1,0.3-2.2,0.8-3.3
	H5.6z"/>
</svg>
