<?xml version="1.0" encoding="utf-8"?>
<!-- Generator: Adobe Illustrator 23.0.3, SVG Export Plug-In . SVG Version: 6.00 Build 0)  -->
<svg version="1.1" id="Ebene_1" xmlns="http://www.w3.org/2000/svg" xmlns:xlink="http://www.w3.org/1999/xlink" x="0px" y="0px"
	 viewBox="0 0 64 64" style="enable-background:new 0 0 64 64;" xml:space="preserve">
<style type="text/css">
	.st0{stroke:#ffffff;stroke-width:0.3;}
	.st1{stroke:#ffffff;stroke-width:0.4;}
</style>
<g id="Gruppe_426" transform="translate(349.2 -801.467)">
	<g id="_012-leafs" transform="translate(-346.1 805)">
		<path id="Pfad_368" class="st0" d="M29.4,11.7L29.4,11.7c-0.4-0.2-0.8-0.2-1.1-0.1c-2.1,1.2-4,2.7-5.5,4.6
			c-3.6,4.2-5.6,9.6-5.5,15.1c0,3.6,0.8,7.2,2.4,10.5c2.1,4,5.3,7.4,9.2,9.7c1.8-1.1,3.4-2.4,4.9-3.9c0.4-0.4,0.7-0.7,1.1-1.1
			c3.6-4.2,5.6-9.6,5.5-15.1C40.5,23.3,36.4,15.8,29.4,11.7z M24.4,17.8c1-1.1,2-2.1,3.2-3v12.9l-5.9-5.9
			C22.5,20.3,23.4,19,24.4,17.8L24.4,17.8z M19.6,31.3c0-2.5,0.4-4.9,1.2-7.2l6.8,6.8l0,16.9C22.5,44,19.5,37.8,19.6,31.3z
			 M33.2,44.8c-1,1.1-2,2.1-3.2,3l0-8.7l8-8v0.2C38.1,36.3,36.4,41.1,33.2,44.8z M37.8,28.1c-0.1,0-0.1,0.1-0.2,0.1L30,35.9V14.8
			C34.3,18,37.1,22.8,37.8,28.1z" fill="#ffffff"/>
	</g>
	<g id="Gruppe_311" transform="translate(-349 801.667)">
		<g id="Gruppe_73" transform="translate(0 0)">
			<path id="Pfad_319" class="st1" d="M54.2,62.1H9.4c-0.7,0-1.3-0.6-1.3-1.3V34.4c0-0.7,0.6-1.3,1.3-1.3s1.3,0.6,1.3,1.3v25
				c20.9,0.1,23.2,0.1,42.1,0V35.8c0-0.7,0.6-1.3,1.3-1.3c0.7,0,1.3,0.6,1.3,1.3v25C55.5,61.5,54.9,62.1,54.2,62.1
				C54.2,62.1,54.2,62.1,54.2,62.1z M62.1,34.4c-0.3,0-0.7-0.1-0.9-0.4L31.8,4.7L2.4,34.1c-0.5,0.5-1.3,0.5-1.9,0s-0.5-1.3,0-1.9
				L30.9,1.9c0.5-0.5,1.3-0.5,1.9,0c0,0,0,0,0,0L63,32.2c0.5,0.5,0.5,1.3,0,1.9C62.8,34.3,62.5,34.4,62.1,34.4L62.1,34.4z" fill="#ffffff"/>
		</g>
	</g>
</g>
</svg>
