<?xml version="1.0" encoding="utf-8"?>
<!-- Generator: Adobe Illustrator 23.0.1, SVG Export Plug-In . SVG Version: 6.00 Build 0)  -->
<svg version="1.1" id="Ebene_1" xmlns="http://www.w3.org/2000/svg" xmlns:xlink="http://www.w3.org/1999/xlink" x="0px" y="0px"
	 viewBox="0 0 28.8 27.6" style="enable-background:new 0 0 28.8 27.6;" xml:space="preserve">
<style type="text/css">
	.st0{fill:#646464;stroke:#646464;stroke-width:0.2;}
</style>
<g id="Gruppe_74" transform="translate(0.142 -11.089)">
	<g id="Gruppe_73" transform="translate(0 11.231)">
		<path id="Pfad_319" class="st0" d="M24.4,27.4h-7.1c-0.3,0-0.6-0.3-0.6-0.6V19h-4.8v7.7c0,0.3-0.3,0.6-0.6,0.6H4.2
			c-0.3,0-0.6-0.3-0.6-0.6V14.9c0-0.3,0.3-0.6,0.6-0.6c0.3,0,0.6,0.3,0.6,0.6v11.3h5.9v-7.7c0-0.3,0.3-0.6,0.6-0.6h5.9
			c0.3,0,0.6,0.3,0.6,0.6v7.7h6V15.5c0-0.3,0.3-0.6,0.6-0.6c0.3,0,0.6,0.3,0.6,0.6v11.3C25,27.1,24.7,27.4,24.4,27.4z M28,14.9
			c-0.2,0-0.3-0.1-0.4-0.2L14.3,1.4L1,14.7c-0.2,0.2-0.6,0.2-0.8,0c-0.2-0.2-0.2-0.6,0-0.8L13.9,0.2c0.2-0.2,0.6-0.2,0.8,0
			l13.7,13.7c0.2,0.2,0.2,0.6,0,0.8C28.3,14.8,28.1,14.9,28,14.9L28,14.9z M23.2,6.5c-0.3,0-0.6-0.3-0.6-0.6V2.4H19
			c-0.3,0-0.6-0.3-0.6-0.6s0.3-0.6,0.6-0.6h4.2c0.3,0,0.6,0.3,0.6,0.6v4.2C23.8,6.3,23.5,6.5,23.2,6.5z"/>
	</g>
</g>
</svg>
