<?xml version="1.0" encoding="utf-8"?>
<!-- Generator: Adobe Illustrator 23.0.3, SVG Export Plug-In . SVG Version: 6.00 Build 0)  -->
<svg version="1.1" id="Layer_1" xmlns="http://www.w3.org/2000/svg" xmlns:xlink="http://www.w3.org/1999/xlink" x="0px" y="0px"
	 viewBox="0 0 64 64" style="enable-background:new 0 0 64 64;" xml:space="preserve">
<style type="text/css">
	.st0{stroke:#000000;stroke-width:0.5;stroke-miterlimit:10;}
</style>
<g>
	<g>
		<path class="st0" d="M60.8,19.1C57.1,10.8,50,4.6,41.3,1.9c-3-0.9-6.1-1.4-9.3-1.4c-5,0-9.8,1.1-14.2,3.4c-4.2,2.2-8,5.3-10.9,9.1
			c-4.2,5.5-6.4,12.1-6.4,19c0,5,1.2,9.8,3.4,14.3c2.6,5.1,6.5,9.4,11.4,12.4c5,3.1,10.8,4.8,16.7,4.8c6.8,0,13.2-2.1,18.6-6.1
			c5.3-3.9,9.2-9.3,11.3-15.5c1.1-3.2,1.6-6.5,1.6-9.9C63.5,27.5,62.6,23.2,60.8,19.1z M58,19.2c-1.7-0.3-4-0.4-6.5,0.2
			c-0.4-0.6-0.9-1.1-1.4-1.6c-1.2-1.2-2.5-2.1-3.9-2.6c-0.7-3.4-1.6-6.7-2.9-9.9C49.7,8,54.9,12.9,58,19.2z M50.3,26.1
			c0,0.1-0.1,0.1-0.2,0.2c-0.7,0.7-2.1,0.8-3.7,0.2c0,0,0,0-0.1,0c-1.1-0.4-2.1-1.1-3-2c-0.5-0.5-1-1.1-1.4-1.7
			c-0.9-1.5-1.3-3.1-1-4.2c0.1-0.3,0.3-0.6,0.5-0.8c0.7-0.7,1.8-0.8,3.2-0.4c1.2,0.4,2.5,1.2,3.6,2.2c0.6,0.6,1.1,1.3,1.5,1.9
			C50.8,23.3,51.1,25.2,50.3,26.1z M18.9,6.2C23,4.1,27.4,3,32,3c2.7,0,5.4,0.4,8,1.1c1.5,3.3,2.7,6.8,3.4,10.4
			c-1.5-0.1-2.8,0.4-3.7,1.3c-0.2,0.2-0.3,0.3-0.4,0.5c-6.6-3.3-13.9-5.1-21.3-5.1c-2.3,0-4.6,0.2-6.8,0.5
			C13.4,9.6,16.1,7.6,18.9,6.2z M3,32C3,25.8,5,19.9,8.6,14.9c3.1-0.7,6.2-1,9.4-1c7.1,0,14.2,1.7,20.4,4.9
			c-0.1,1.2,0.1,2.5,0.7,3.9C26.5,26.9,14.9,34.1,5.4,43.5C3.8,39.9,3,36,3,32z M31.4,61c-5.3-0.1-10.4-1.6-14.8-4.4
			C12.4,53.9,9,50.3,6.6,45.9c9.5-9.6,21.2-16.8,33.9-21c0.3,0.5,0.7,0.9,1.2,1.3c0.9,0.9,1.9,1.7,3,2.2
			C44.1,40.4,39.4,51.9,31.4,61z M57.9,44.9c-4.4,8.9-13.1,14.9-23.1,15.9c7.2-9,11.5-20,12.2-31.5c0.4,0.1,0.9,0.1,1.3,0.1
			c1.1,0,2-0.3,2.8-0.8C56.3,34.4,58.3,40.8,57.9,44.9z M59.9,39.6c-1.2-4.7-4-9.5-7.1-12.9c0.6-1.4,0.6-3.2-0.2-5
			c2.9-0.6,5.4,0,6.5,0.4c1.2,3.2,1.7,6.5,1.7,9.9C61,34.6,60.6,37.2,59.9,39.6z"/>
	</g>
</g>
</svg>
