<?xml version="1.0" encoding="utf-8"?>
<!-- Generator: Adobe Illustrator 23.0.1, SVG Export Plug-In . SVG Version: 6.00 Build 0)  -->
<svg version="1.0" id="Ebene_1" xmlns="http://www.w3.org/2000/svg" xmlns:xlink="http://www.w3.org/1999/xlink" x="0px" y="0px"
	 viewBox="0 0 18.3 23.6" style="enable-background:new 0 0 18.3 23.6;" xml:space="preserve">
<style type="text/css">
	.st0{clip-path:url(#SVGID_2_);}
	.st1{clip-path:url(#SVGID_6_);}
</style>
<title>Gruppe 10</title>
<g id="Gruppe_10">
	<g>
		<defs>
			<path id="SVGID_1_" d="M16.7,4.1C14,0,8.4-1.2,4.2,1.6c-1,0.7-1.9,1.5-2.5,2.5C0,6.7-0.5,9.9,0.6,12.9c0.3,0.8,0.8,1.6,1.3,2.3
				l6.7,8.1c0.1,0.2,0.4,0.3,0.6,0.3c0.2,0,0.5-0.1,0.6-0.3l6.6-8.1c0.6-0.7,1-1.4,1.3-2.3C18.8,10,18.4,6.7,16.7,4.1z M16.3,12.3
				c-0.2,0.7-0.6,1.3-1,1.8l0,0l-6.1,7.5l-6.1-7.5c-0.5-0.5-0.9-1.1-1.1-1.8C1.2,9.8,1.5,7.1,2.9,5c2.2-3.5,6.9-4.5,10.3-2.2
				c0.9,0.6,1.6,1.3,2.2,2.2C16.9,7.2,17.2,9.9,16.3,12.3L16.3,12.3z"/>
		</defs>
		<use xlink:href="#SVGID_1_"  style="overflow:visible;fill:#3B3B3B;"/>
		<clipPath id="SVGID_2_">
			<use xlink:href="#SVGID_1_"  style="overflow:visible;"/>
		</clipPath>
		<g class="st0">
			<g id="Gruppe_5">
				<g>
					<defs>
						<rect id="SVGID_3_" x="-905.3" y="-269.2" width="943.2" height="2936.5"/>
					</defs>
					<clipPath id="SVGID_4_">
						<use xlink:href="#SVGID_3_"  style="overflow:visible;"/>
					</clipPath>
				</g>
			</g>
		</g>
	</g>
	<g>
		<defs>
			<path id="SVGID_5_" d="M9.2,4.6c-2.5,0-4.6,2-4.6,4.6c0,2.5,2,4.6,4.6,4.6s4.6-2,4.6-4.6c0,0,0,0,0,0C13.8,6.6,11.7,4.6,9.2,4.6z
				 M9.2,12.2c-1.7,0-3.1-1.4-3.1-3.1s1.4-3.1,3.1-3.1s3.1,1.4,3.1,3.1v0C12.2,10.9,10.9,12.2,9.2,12.2z"/>
		</defs>
		<use xlink:href="#SVGID_5_"  style="overflow:visible;fill:#3B3B3B;"/>
		<clipPath id="SVGID_6_">
			<use xlink:href="#SVGID_5_"  style="overflow:visible;"/>
		</clipPath>
		<g class="st1">
			<g id="Gruppe_7">
				<g>
					<defs>
						<rect id="SVGID_7_" x="-905.3" y="-269.2" width="943.2" height="2936.5"/>
					</defs>
					<clipPath id="SVGID_8_">
						<use xlink:href="#SVGID_7_"  style="overflow:visible;"/>
					</clipPath>
				</g>
			</g>
		</g>
	</g>
</g>
</svg>
