<?xml version="1.0" encoding="utf-8"?>
<!-- Generator: Adobe Illustrator 23.0.3, SVG Export Plug-In . SVG Version: 6.00 Build 0)  -->
<svg version="1.1" id="Capa_1" xmlns="http://www.w3.org/2000/svg" xmlns:xlink="http://www.w3.org/1999/xlink" x="0px" y="0px"
	 viewBox="0 0 64 64" style="enable-background:new 0 0 64 64;" xml:space="preserve">
<g>
	<g>
		<path d="M13.8,24.8h5.2c0.6,0,1.2,0.1,1.8,0.2c0-2.1,1.6-4.1,2.9-5.6c1.2-1.4,2.6-2.3,4.1-2.9c0,0,0,0,0.1,0
			c1.3-4.1,0.5-8.7-2.7-12C20.5-0.3,13-0.5,8.1,4S3,16.2,7.6,21c0.2,0.2,0.3,0.4,0.5,0.5c-3.8,2.1-6.2,6-6.2,10.3v14.6
			c0,1.3,1.1,2.4,2.4,2.4h13.3c-0.1-1.1,0-2.6,0.4-3.8c0-0.2,0-0.4,0-0.6c0-0.1,0-0.3,0-0.4H6.7V31.9C6.8,28,9.9,24.8,13.8,24.8z
			 M16.3,5.6c4,0,7.2,3.2,7.2,7.2S20.3,20,16.3,20s-7.2-3.2-7.2-7.2C9.1,8.8,12.4,5.6,16.3,5.6z"/>
	</g>
</g>
<g>
	<g>
		<path d="M55.9,21.5c4.8-4.5,5.1-12.1,0.5-17c-4.5-4.8-12.1-5.1-17-0.5c-3.5,3.3-4.6,8.2-3.2,12.5c0.1,0.1,0.3,0.2,0.4,0.3
			c0.2,0.1,0.3,0.2,0.5,0.3c0,0,0,0,0.1,0c0.4,0.3,0.7,0.5,1.1,0.8c0.9,0.6,1.9,1.1,2.6,2c0.4,0.5,0.7,1.1,1,1.7
			c0.3,0.2,0.5,0.5,0.6,0.9c0.1,0.5,0.4,1,0.6,1.5c0.1,0.3,0.2,0.5,0.2,0.7c0.1,0.1,0.1,0.2,0.2,0.4c0.5-0.1,1.1-0.2,1.7-0.2h5.2
			c3.9,0,7,3.1,7,7V44H45.8c0.2,0.7,0.1,1.5,0,2.2c0.1,0.9,0.2,1.7,0.1,2.6h13.8c1.3,0,2.4-1.1,2.4-2.4V31.9
			C62,27.5,59.7,23.6,55.9,21.5z M47.6,20c-4,0-7.2-3.2-7.2-7.2c0-4,3.2-7.2,7.2-7.2c4,0,7.2,3.2,7.2,7.2S51.6,20,47.6,20z"/>
	</g>
</g>
<g>
	<g>
		<path d="M40.2,35.9c4.8-4.5,5.1-12.1,0.5-17s-12.1-5.1-17-0.5s-5.1,12.1-0.5,17c0.2,0.2,0.3,0.4,0.5,0.5c-3.8,2.1-6.2,6-6.2,10.3
			v14.6c0,1.3,1.1,2.4,2.4,2.4l0,0h24c1.3,0,2.4-1.1,2.4-2.4l0,0V46.3C46.3,41.9,43.9,38,40.2,35.9z M31.9,20c4,0,7.2,3.2,7.2,7.2
			s-3.2,7.2-7.2,7.2s-7.2-3.2-7.2-7.2C24.7,23.2,27.9,20,31.9,20z M41.5,58.5H22.3V46.3c0-3.9,3.1-7,7-7h5.2c3.9,0,7,3.1,7,7
			L41.5,58.5L41.5,58.5z"/>
	</g>
</g>
</svg>
