<?xml version="1.0" encoding="utf-8"?>
<!-- Generator: Adobe Illustrator 23.0.3, SVG Export Plug-In . SVG Version: 6.00 Build 0)  -->
<svg version="1.1" id="Capa_1" xmlns="http://www.w3.org/2000/svg" xmlns:xlink="http://www.w3.org/1999/xlink" x="0px" y="0px"
	 viewBox="0 0 64 64" style="enable-background:new 0 0 64 64;" xml:space="preserve">
<g>
	<g>
		<path d="M40.2,35.9c4.8-4.5,5.1-12.1,0.5-17s-12.1-5.1-17-0.5s-5.1,12.1-0.5,17c0.2,0.2,0.3,0.4,0.5,0.5c-3.8,2.1-6.2,6-6.2,10.3
			v14.6c0,1.3,1.1,2.4,2.4,2.4l0,0h24c1.3,0,2.4-1.1,2.4-2.4l0,0V46.3C46.3,41.9,43.9,38,40.2,35.9z M32,18c4.9,0,8.8,3.9,8.8,8.8
			s-3.9,8.8-8.8,8.8s-8.8-3.9-8.8-8.8C23.3,21.9,27.1,18,32,18z M42.9,59.6H21.2V45.9c0-4.4,3.5-7.9,7.9-7.9h5.9
			c4.4,0,7.9,3.5,7.9,7.9V59.6L42.9,59.6z" fill="#ffffff"/>
	</g>
</g>
<g>
	<g>
		<path d="M18.1,48.6c0-0.2,0.1-0.3,0.1-0.5c-0.3-0.7-0.5-1.6-0.5-2.5c0-0.1,0-0.3,0.1-0.4H5.7V31.5c0-4.4,3.5-7.9,7.9-7.9h5.9
			c0.4,0,0.9,0,1.3,0.1c0.7-2.8,4.6-5.6,6.4-7c0.3-0.2,0.5-0.3,0.8-0.3c1.2-4,0.4-8.5-2.7-11.8C20.6-0.4,13.1-0.6,8.2,4
			C3.3,8.6,3.1,16.1,7.7,21c0.2,0.2,0.3,0.4,0.5,0.5C4.4,23.6,2,27.5,2,31.8v14.6c0,1.3,1.1,2.4,2.4,2.4h13.7
			C18.1,48.8,18.1,48.7,18.1,48.6z M7.8,12.4c0-4.9,3.9-8.8,8.8-8.8c4.9,0,8.8,3.9,8.8,8.8c0,4.9-3.9,8.8-8.8,8.8
			C11.7,21.2,7.8,17.3,7.8,12.4z" fill="#ffffff"/>
	</g>
</g>
<g>
	<g>
		<path d="M55.9,21.5c4.8-4.5,5.1-12.1,0.5-17c-4.6-4.9-12.1-5.1-17-0.5c-3.5,3.3-4.6,8.2-3.2,12.5c0.1,0.2,0.3,0.4,0.3,0.6
			c0,0.1,0.1,0.2,0.1,0.3c2.8,1.7,4.2,3.5,5.7,6.4c0,0.1,0,0.1,0.1,0.2c0.8-0.2,1.6-0.4,2.4-0.4h5.9c4.4,0,7.9,3.5,7.9,7.9v13.8h-13
			c0.1,1.1-0.1,2.5-0.3,3.6h14.3c1.3,0,2.4-1.1,2.4-2.4V31.9C62,27.5,59.6,23.6,55.9,21.5z M47.7,21.1c-4.9,0-8.8-3.9-8.8-8.8
			c0-4.9,3.9-8.8,8.8-8.8c4.9,0,8.8,3.9,8.8,8.8C56.5,17.3,52.6,21.1,47.7,21.1z" fill="#ffffff"/>
	</g>
</g>
</svg>
