<svg version="1.1" id="Ebene_1" xmlns="http://www.w3.org/2000/svg" xmlns:xlink="http://www.w3.org/1999/xlink" x="0px" y="0px"
	 viewBox="0 0 18.3 81.6" style="enable-background:new 0 0 18.3 81.6;" xml:space="preserve">
<style type="text/css">
	.st0{fill:none;}
	.st1{fill:#707070;}
	.st2{clip-path:url(#SVGID_2_);}
	.st3{clip-path:url(#SVGID_6_);}
</style>
<g id="Gruppe_260" transform="translate(-48.525 -62)">
	<g id="Ellipse_292" transform="translate(50 62)">
		<circle class="st0" cx="7" cy="7" r="7"/>
		<path class="st1" d="M7,14c-3.9,0-7-3.1-7-7s3.1-7,7-7s7,3.1,7,7S10.9,14,7,14z M7,2C4.2,2,2,4.2,2,7s2.2,5,5,5c2.8,0,5-2.2,5-5
			S9.8,2,7,2z"/>
	</g>
	<g id="Gruppe_113" transform="translate(48.525 120)">
		<g>
			<defs>
				<path id="SVGID_1_" d="M16.7,4.1C15.1,1.5,12.2,0,9.2,0c-3,0-5.9,1.5-7.5,4.1c-1.7,2.6-2.1,5.8-1.1,8.8c0.3,0.8,0.8,1.6,1.3,2.3
					l6.7,8.1c0.1,0.2,0.4,0.3,0.6,0.3c0.2,0,0.5-0.1,0.6-0.3l6.7-8.1c0.6-0.7,1-1.4,1.3-2.3C18.8,10,18.4,6.7,16.7,4.1z M16.3,12.3
					c-0.2,0.7-0.6,1.3-1.1,1.8l0,0l-6.1,7.5l-6.1-7.5c-0.5-0.5-0.8-1.1-1.1-1.8C1.1,9.8,1.5,7.1,2.9,5c1.4-2.1,3.7-3.4,6.3-3.4
					c2.5,0,4.9,1.3,6.3,3.4C16.9,7.1,17.2,9.8,16.3,12.3L16.3,12.3z"/>
			</defs>
			<use xlink:href="#SVGID_1_"  style="overflow:visible;fill:#707070;"/>
			<clipPath id="SVGID_2_">
				<use xlink:href="#SVGID_1_"  style="overflow:visible;"/>
			</clipPath>
			<g id="Gruppe_5" transform="translate(0 0)" class="st2">
				<g>
					<defs>
						<rect id="SVGID_3_" x="-905.3" y="-269.2" width="943.3" height="2936.5"/>
					</defs>
					<clipPath id="SVGID_4_">
						<use xlink:href="#SVGID_3_"  style="overflow:visible;"/>
					</clipPath>
				</g>
			</g>
		</g>
		<g>
			<defs>
				<path id="SVGID_5_" d="M9.2,4.6c-2.5,0-4.6,2.1-4.6,4.6c0,2.5,2.1,4.6,4.6,4.6c2.5,0,4.6-2.1,4.6-4.6C13.8,6.6,11.7,4.6,9.2,4.6
					z M9.2,12.2c-1.7,0-3.1-1.4-3.1-3.1c0-1.7,1.4-3.1,3.1-3.1c1.7,0,3.1,1.4,3.1,3.1C12.2,10.9,10.9,12.2,9.2,12.2z"/>
			</defs>
			<use xlink:href="#SVGID_5_"  style="overflow:visible;fill:#707070;"/>
			<clipPath id="SVGID_6_">
				<use xlink:href="#SVGID_5_"  style="overflow:visible;"/>
			</clipPath>
			<g id="Gruppe_7" transform="translate(4.585 4.585)" class="st3">
				<g>
					<defs>
						<rect id="SVGID_7_" x="-909.8" y="-273.8" width="943.3" height="2936.5"/>
					</defs>
					<clipPath id="SVGID_8_">
						<use xlink:href="#SVGID_7_"  style="overflow:visible;"/>
					</clipPath>
				</g>
			</g>
		</g>
	</g>
	<path class="st1" d="M57.5,114.5c-0.6,0-1-0.4-1-1v-1c0-0.6,0.4-1,1-1s1,0.4,1,1v1C58.5,114.1,58.1,114.5,57.5,114.5z M57.5,109.5
		c-0.6,0-1-0.4-1-1v-1c0-0.6,0.4-1,1-1s1,0.4,1,1v1C58.5,109.1,58.1,109.5,57.5,109.5z M57.5,104.5c-0.6,0-1-0.4-1-1v-1
		c0-0.6,0.4-1,1-1s1,0.4,1,1v1C58.5,104.1,58.1,104.5,57.5,104.5z M57.5,99.5c-0.6,0-1-0.4-1-1v-1c0-0.6,0.4-1,1-1s1,0.4,1,1v1
		C58.5,99.1,58.1,99.5,57.5,99.5z M57.5,94.5c-0.6,0-1-0.4-1-1v-1c0-0.6,0.4-1,1-1s1,0.4,1,1v1C58.5,94.1,58.1,94.5,57.5,94.5z
		 M57.5,89.5c-0.6,0-1-0.4-1-1v-1c0-0.6,0.4-1,1-1s1,0.4,1,1v1C58.5,89.1,58.1,89.5,57.5,89.5z M57.5,84.5c-0.6,0-1-0.4-1-1v-1
		c0-0.6,0.4-1,1-1s1,0.4,1,1v1C58.5,84.1,58.1,84.5,57.5,84.5z"/>
</g>
</svg>
