<svg version="1.0" id="Ebene_1" xmlns="http://www.w3.org/2000/svg" xmlns:xlink="http://www.w3.org/1999/xlink" x="0px" y="0px"
	 viewBox="0 0 20 21.6" style="enable-background:new 0 0 20 21.6;" xml:space="preserve">
<style type="text/css">
	.st0{fill:#7ECE96;}
</style>
<path id="Pfad_312" class="st0" d="M14.2,5.8c1.3,1.3,3.5,1.3,4.8,0c1.3-1.3,1.3-3.5,0-4.8c-1.3-1.3-3.5-1.3-4.8,0
	c-0.9,0.9-1.2,2.2-0.9,3.3L5.9,8.6C5.9,8.5,5.8,8.5,5.8,8.4C4.5,7.1,2.3,7.1,1,8.4c-1.3,1.3-1.3,3.5,0,4.8c1.3,1.3,3.5,1.3,4.8,0
	c0.1-0.1,0.1-0.1,0.2-0.2l7.4,4.2c-0.5,1.8,0.5,3.7,2.3,4.2c1.8,0.5,3.7-0.5,4.2-2.3s-0.5-3.7-2.3-4.2c-1.2-0.3-2.5,0-3.4,0.9
	l-0.1,0.1l-7.5-4.3c0.1-0.5,0.1-1.1,0-1.6L14.2,5.8L14.2,5.8z M15.6,16.8c0.8-0.5,1.9-0.3,2.5,0.5c0.5,0.8,0.3,1.9-0.5,2.5
	c-0.8,0.5-1.9,0.3-2.5-0.5c-0.2-0.3-0.3-0.6-0.3-1c0,0,0-0.1,0-0.1C14.9,17.6,15.2,17.1,15.6,16.8z M3.4,12.6c-1,0-1.8-0.8-1.8-1.8
	c0-1,0.8-1.8,1.8-1.8c1,0,1.8,0.8,1.8,1.8c0,0.5-0.2,1.1-0.7,1.4C4.2,12.5,3.8,12.6,3.4,12.6z M14.8,3.4c0-1,0.9-1.8,1.8-1.7
	c1,0,1.8,0.9,1.7,1.8s-0.9,1.8-1.8,1.7C15.6,5.2,14.9,4.4,14.8,3.4C14.8,3.5,14.8,3.4,14.8,3.4z"/>
</svg>
