<?xml version="1.0" encoding="utf-8"?>
<!-- Generator: Adobe Illustrator 23.0.3, SVG Export Plug-In . SVG Version: 6.00 Build 0)  -->
<svg version="1.1" id="Capa_1" xmlns="http://www.w3.org/2000/svg" xmlns:xlink="http://www.w3.org/1999/xlink" x="0px" y="0px"
	 viewBox="0 0 64 64" style="enable-background:new 0 0 64 64;" xml:space="preserve">
<g>
	<path d="M19.5,41.9h34.3c3.9,0,7.1-3.2,7.1-7.1V20.4c0,0,0,0,0-0.1c0,0,0-0.1,0-0.1c0,0,0-0.1,0-0.1c0,0,0-0.1,0-0.1s0-0.1,0-0.1
		c0,0,0-0.1,0-0.1c0,0,0-0.1,0-0.1c0,0,0-0.1,0-0.1s0-0.1,0-0.1c0,0,0-0.1,0-0.1c0,0,0-0.1,0-0.1c0,0,0,0,0-0.1c0,0,0-0.1-0.1-0.1
		s0,0-0.1-0.1c0,0,0,0-0.1-0.1c0,0,0,0-0.1-0.1c0,0,0,0-0.1-0.1c0,0,0,0-0.1-0.1c0,0,0,0-0.1-0.1c0,0-0.1,0-0.1-0.1c0,0,0,0-0.1,0
		c0,0-0.1,0-0.1-0.1c0,0-0.1,0-0.1,0c0,0-0.1,0-0.1,0c0,0-0.1,0-0.1,0c0,0-0.1,0-0.1,0s-0.1,0-0.1,0c0,0-0.1,0-0.1,0
		c0,0-0.1,0-0.1,0c0,0,0,0-0.1,0l-43.5-6V6.6c0-0.1,0-0.1,0-0.2c0,0,0,0,0-0.1c0,0,0-0.1,0-0.1c0,0,0-0.1,0-0.1c0,0,0,0,0-0.1
		c0,0,0-0.1,0-0.1c0,0,0,0,0-0.1c0,0,0-0.1-0.1-0.1c0,0,0,0,0-0.1c0,0,0-0.1-0.1-0.1c0,0,0,0,0-0.1c0,0,0,0,0-0.1c0,0,0-0.1-0.1-0.1
		c0,0,0,0,0,0c0,0-0.1-0.1-0.1-0.1c0,0,0,0,0,0c0,0-0.1-0.1-0.1-0.1c0,0,0,0-0.1,0c0,0-0.1,0-0.1-0.1c0,0-0.1-0.1-0.1-0.1
		c0,0,0,0,0,0C15,5,14.9,5,14.9,4.9L5.4,1C4.6,0.6,3.5,1,3.2,1.9s0,1.9,0.9,2.3l8.4,3.5v7.8v1.2v9.5v8.5v10.8c0,3.6,2.7,6.6,6.2,7
		c-0.6,1.1-1,2.3-1,3.6c0,3.9,3.1,7,7,7s7-3.1,7-7c0-1.3-0.3-2.5-1-3.5h15.6c-0.6,1-1,2.2-1,3.5c0,3.9,3.1,7,7,7s7-3.1,7-7
		s-3.1-7-7-7H19.5c-2,0-3.6-1.6-3.6-3.6v-4.7C17,41.5,18.2,41.9,19.5,41.9z M28.2,56.2c0,1.9-1.6,3.5-3.5,3.5s-3.5-1.6-3.5-3.5
		c0-1.9,1.6-3.5,3.5-3.5S28.2,54.2,28.2,56.2z M55.8,56.2c0,1.9-1.6,3.5-3.5,3.5c-1.9,0-3.5-1.6-3.5-3.5c0-1.9,1.6-3.5,3.5-3.5
		C54.2,52.7,55.8,54.2,55.8,56.2z M53.9,38.4H19.5c-2,0-3.6-1.6-3.6-3.6v-8.5v-9.5v-0.6l41.6,5.7v13C57.5,36.8,55.9,38.4,53.9,38.4z
		" fill="#7ECE96"/>
</g>
</svg>
