<svg version="1.0" id="Ebene_1" xmlns="http://www.w3.org/2000/svg" xmlns:xlink="http://www.w3.org/1999/xlink" x="0px" y="0px"
	 viewBox="0 0 20.5 20.5" style="enable-background:new 0 0 20.5 20.5;" xml:space="preserve">
<style type="text/css">
	.st0{fill:#7ECE96;}
</style>
<g>
	<path class="st0" d="M19.8,6.4l-0.1-0.1c-1-2.5-3-4.4-5.5-5.4C13,0.3,11.6,0,10.3,0c0,0,0,0,0,0c-1.4,0-2.7,0.3-4,0.8
		c-2.5,1-4.4,3-5.5,5.4c-1.1,2.5-1.1,5.5,0,8c1,2.5,3,4.4,5.5,5.5c1.3,0.5,2.6,0.8,4,0.8c0,0,0,0,0,0c1.4,0,2.7-0.3,4-0.8
		c2.5-1,4.4-3,5.5-5.5C20.8,11.8,20.8,8.9,19.8,6.4z M19.1,10.3c0,1.6-0.4,3.1-1.2,4.4l0,0v0c-0.8,1.3-1.9,2.4-3.2,3.2
		c-1.3,0.8-2.8,1.2-4.4,1.2c0,0,0,0-0.1,0c-1.2,0-2.3-0.2-3.4-0.7c-1.1-0.4-2-1.1-2.8-1.9c-0.8-0.8-1.4-1.8-1.9-2.8
		c-0.5-1.1-0.7-2.3-0.7-3.4c0-1.6,0.4-3.1,1.2-4.4c0.8-1.3,1.9-2.5,3.2-3.2c1.3-0.8,2.8-1.2,4.4-1.2c0,0,0.1,0,0.1,0
		c1.5,0,3,0.4,4.4,1.2c1.3,0.8,2.5,1.9,3.2,3.2C18.7,7.2,19.1,8.7,19.1,10.3z"/>
	<path class="st0" d="M14,13.1l-3-3V4.5c0-0.4-0.3-0.7-0.7-0.7c0,0,0,0,0,0c-0.4,0-0.7,0.3-0.7,0.7v5.7l0,0c0,0,0,0,0,0.1
		c0,0.2,0,0.4,0.2,0.6l3.3,3.3c0.1,0.1,0.3,0.2,0.5,0.2c0.2,0,0.3-0.1,0.5-0.2c0.1-0.1,0.2-0.3,0.2-0.5C14.3,13.5,14.2,13.3,14,13.1
		C14.1,13.2,14.1,13.2,14,13.1z"/>
</g>
</svg>
