<svg version="1.1" id="Ebene_1" xmlns="http://www.w3.org/2000/svg" xmlns:xlink="http://www.w3.org/1999/xlink" x="0px" y="0px"
	 viewBox="0 0 13 24.9" style="enable-background:new 0 0 13 24.9;" xml:space="preserve">
<style type="text/css">
	.st0{fill:#7ECE96;}
</style>
<g id="Gruppe_469" transform="translate(-112.321 0)">
	<g id="Gruppe_468" transform="translate(112.321 0)">
		<path id="Pfad_414" class="st0" d="M5.9,4c0.5,0,1-0.2,1.4-0.6C7.6,3,7.8,2.5,7.8,2c0-0.5-0.2-1-0.6-1.4C6.8,0.2,6.3,0,5.8,0
			c-0.5,0-1,0.2-1.4,0.6C4.1,1,3.9,1.5,3.9,2.1c0,0.5,0.2,1,0.6,1.4C4.9,3.8,5.4,4,5.9,4z"/>
		<path id="Pfad_415" class="st0" d="M12.6,10.7L9.7,9.1L7.3,5.3c-0.4-0.5-1-0.8-1.7-0.8c-0.5,0-1,0.2-1.3,0.6L0.7,8.7
			C0.6,8.9,0.5,9,0.5,9.2L0,13.3v0.1c0,0.5,0.4,0.9,0.9,0.9l0,0c0.2,0,0.5-0.1,0.6-0.3c0.2-0.2,0.3-0.4,0.3-0.6l0.4-3.5l1.3-1.3
			l-1.2,9.7L0.2,23c-0.1,0.2-0.1,0.4-0.1,0.6c0,0.4,0.1,0.7,0.4,1c0.3,0.3,0.6,0.4,1,0.3c0.5,0,1-0.3,1.2-0.7l2.2-5
			c0-0.1,0-0.1,0.1-0.2C5,18.9,5,18.8,5,18.8c0-0.1,0.1-0.1,0.1-0.2l0.3-2.4L7.6,24c0.2,0.6,0.7,1,1.3,0.9c0.4,0,0.7-0.1,0.9-0.4
			c0.3-0.3,0.4-0.6,0.4-1c0,0,0-0.1,0-0.1c0,0,0-0.1,0-0.1L7.1,12.4l0.4-3.5l0.9,1.4c0.1,0.1,0.2,0.2,0.3,0.3l3.1,1.7
			c0.1,0.1,0.3,0.1,0.4,0.1c0.2,0,0.5-0.1,0.6-0.3c0.2-0.2,0.3-0.4,0.3-0.7C13,11.2,12.9,10.9,12.6,10.7z"/>
	</g>
</g>
</svg>
