<?xml version="1.0" encoding="utf-8"?>
<!-- Generator: Adobe Illustrator 23.0.1, SVG Export Plug-In . SVG Version: 6.00 Build 0)  -->
<svg version="1.0" id="Ebene_1" xmlns="http://www.w3.org/2000/svg" xmlns:xlink="http://www.w3.org/1999/xlink" x="0px" y="0px"
	 viewBox="0 0 17.5 17.5" style="enable-background:new 0 0 17.5 17.5;" xml:space="preserve">
<style type="text/css">
	.st0{fill:#7ECE96;}
</style>
<path class="st0" d="M10.2,8.8l6.6-6.6c0.4-0.4,0.4-1,0-1.4s-1-0.4-1.4,0L8.7,7.3L2.1,0.7c-0.4-0.4-1-0.4-1.4,0s-0.4,1,0,1.4
	l6.6,6.6l-6.6,6.6c-0.4,0.4-0.4,1,0,1.4c0.2,0.2,0.5,0.3,0.7,0.3s0.5-0.1,0.7-0.3l6.6-6.6l6.6,6.6c0.2,0.2,0.5,0.3,0.7,0.3
	s0.5-0.1,0.7-0.3c0.4-0.4,0.4-1,0-1.4L10.2,8.8z"/>
</svg>
