<svg xmlns="http://www.w3.org/2000/svg" width="40.521" height="55.943" viewBox="0 0 40.521 55.943">
  <g id="Gruppe_453" data-name="Gruppe 453" transform="translate(-301 -293.028)">
    <g id="Gruppe_94" data-name="Gruppe 94" transform="translate(-3 -82)">
      <g id="Gruppe_79" data-name="Gruppe 79" transform="translate(233.427 375.028)">
        <g id="Gruppe_78" data-name="Gruppe 78" transform="translate(70.573)">
          <path id="Pfad_321" data-name="Pfad 321" d="M90.833,0a20.283,20.283,0,0,0-20.26,20.26c0,13.864,18.131,34.218,18.9,35.078a1.825,1.825,0,0,0,2.715,0c.772-.86,18.9-21.213,18.9-35.078A20.284,20.284,0,0,0,90.833,0Z" transform="translate(-70.573)" fill="#7ece96"/>
        </g>
      </g>
    </g>
    <g id="_009-food-and-restaurant" data-name="009-food-and-restaurant" transform="translate(310.039 303.333)">
      <path id="Pfad_357" data-name="Pfad 357" d="M17.657,157.631h.871a3.186,3.186,0,1,0,0-6.373H2.47v5.1a7.646,7.646,0,0,0,3.425,6.373H0V164H1.307a3.191,3.191,0,0,0,3.122,2.549H15.9A3.192,3.192,0,0,0,19.022,164h1.307v-1.274h-5.99a7.662,7.662,0,0,0,3.318-5.1Zm.871-5.1a1.912,1.912,0,1,1,0,3.824h-.765v-3.824ZM17.7,164a1.915,1.915,0,0,1-1.8,1.274H4.43A1.915,1.915,0,0,1,2.627,164Zm-7.585-1.274a6.38,6.38,0,0,1-6.372-6.373v-3.824H16.489v3.824a6.38,6.38,0,0,1-6.373,6.373Zm0,0" transform="translate(-0.001 -144.843)"/>
      <path id="Pfad_358" data-name="Pfad 358" d="M148.379,0h1.274V4.5h-1.274Zm0,0" transform="translate(-142.086)"/>
      <path id="Pfad_359" data-name="Pfad 359" d="M223.508,0h1.274V4.5h-1.274Zm0,0" transform="translate(-214.029)"/>
      <path id="Pfad_360" data-name="Pfad 360" d="M298.637,0h1.274V4.5h-1.274Zm0,0" transform="translate(-285.972)"/>
    </g>
  </g>
</svg>
