<svg xmlns="http://www.w3.org/2000/svg" width="40.521" height="55.943" viewBox="0 0 40.521 55.943">
  <g id="Gruppe_450" data-name="Gruppe 450" transform="translate(-301 -447.028)">
    <g id="Gruppe_94" data-name="Gruppe 94" transform="translate(-3 72)">
      <g id="Gruppe_79" data-name="Gruppe 79" transform="translate(233.427 375.028)">
        <g id="Gruppe_78" data-name="Gruppe 78" transform="translate(70.573)">
          <path id="Pfad_321" data-name="Pfad 321" d="M90.833,0a20.283,20.283,0,0,0-20.26,20.26c0,13.864,18.131,34.218,18.9,35.078a1.825,1.825,0,0,0,2.715,0c.772-.86,18.9-21.213,18.9-35.078A20.284,20.284,0,0,0,90.833,0Z" transform="translate(-70.573)" fill="#7ece96"/>
        </g>
      </g>
    </g>
    <g id="Gruppe_432" data-name="Gruppe 432" transform="translate(304.478 174.667)">
      <g id="_012-leafs" data-name="012-leafs" transform="translate(9.639 284.85)">
        <path id="Pfad_368" data-name="Pfad 368" d="M10.3.56l0-.008a.407.407,0,0,0-.267-.289A7.068,7.068,0,0,0,7.523.019,7.956,7.956,0,0,0,2.4,2.424,8.21,8.21,0,0,0,.381,5.62a8.573,8.573,0,0,0-.114,4.7,11.706,11.706,0,0,0,2.186.263c.176,0,.361-.006.553-.019a7.954,7.954,0,0,0,5.124-2.4A7.788,7.788,0,0,0,10.3.56ZM7.545.834A6.991,6.991,0,0,1,9.09.889l-3.2,3.2V1.161A6.935,6.935,0,0,1,7.545.834ZM2.974,3a7.647,7.647,0,0,1,2.1-1.512V4.9L.864,9.115A7.07,7.07,0,0,1,2.974,3Zm.01,6.747a7,7,0,0,1-1.546-.055L3.6,7.528h4l-.051.052A7.088,7.088,0,0,1,2.984,9.746ZM8.3,6.722a.411.411,0,0,0-.076-.007H4.415L9.664,1.465A6.933,6.933,0,0,1,8.3,6.722Zm0,0" transform="translate(0 7.462) rotate(-45)" stroke="#000" stroke-width="0.3"/>
      </g>
      <g id="Gruppe_310" data-name="Gruppe 310" transform="translate(6 280.667)">
        <g id="Gruppe_73" data-name="Gruppe 73" transform="translate(0 0)">
          <path id="Pfad_319" data-name="Pfad 319" d="M19.008,32.557H3.245a.463.463,0,0,1-.464-.464V22.821a.464.464,0,0,1,.927,0V31.63c7.347.024,8.175.024,14.836,0V23.285a.464.464,0,0,1,.927,0v8.809A.463.463,0,0,1,19.008,32.557Zm2.782-9.736a.462.462,0,0,1-.328-.136L11.126,12.35.791,22.685a.464.464,0,0,1-.656-.656L10.8,11.367a.463.463,0,0,1,.656,0L22.117,22.03a.464.464,0,0,1-.328.791Z" transform="translate(0 -11.231)" stroke="#000" stroke-width="0.4"/>
        </g>
      </g>
    </g>
  </g>
</svg>
