<svg xmlns="http://www.w3.org/2000/svg" width="40.521" height="55.943" viewBox="0 0 40.521 55.943">
  <g id="Gruppe_449" data-name="Gruppe 449" transform="translate(-301 -525.028)">
    <g id="Gruppe_440" data-name="Gruppe 440" transform="translate(-3 150)">
      <g id="Gruppe_79" data-name="Gruppe 79" transform="translate(233.427 375.028)">
        <g id="Gruppe_78" data-name="Gruppe 78" transform="translate(70.573)">
          <path id="Pfad_321" data-name="Pfad 321" d="M90.833,0a20.283,20.283,0,0,0-20.26,20.26c0,13.864,18.131,34.218,18.9,35.078a1.825,1.825,0,0,0,2.715,0c.772-.86,18.9-21.213,18.9-35.078A20.284,20.284,0,0,0,90.833,0Z" transform="translate(-70.573)" fill="#7ece96"/>
        </g>
      </g>
    </g>
    <g id="_018-ball" data-name="018-ball" transform="translate(299.75 524.4)">
      <g id="Gruppe_302" data-name="Gruppe 302" transform="translate(11 10.6)">
        <path id="Pfad_393" data-name="Pfad 393" d="M31.085,16.809A10.485,10.485,0,0,0,21.5,10.6a10.376,10.376,0,0,0-4.748,1.132,10.682,10.682,0,0,0-3.624,3.026,10.516,10.516,0,0,0-.991,11.1A10.5,10.5,0,0,0,21.5,31.6a10.5,10.5,0,0,0,9.581-14.791Zm-.923.021a5.4,5.4,0,0,0-2.179.073,4.214,4.214,0,0,0-.457-.543,3.886,3.886,0,0,0-1.3-.872,18.266,18.266,0,0,0-.974-3.286A9.651,9.651,0,0,1,30.162,16.831ZM27.6,19.147a.209.209,0,0,1-.051.056,1.16,1.16,0,0,1-1.231.064s-.013,0-.017-.009a3.058,3.058,0,0,1-1-.679,3.334,3.334,0,0,1-.457-.568,1.827,1.827,0,0,1-.325-1.406.672.672,0,0,1,.158-.269,1.047,1.047,0,0,1,1.056-.124,2.926,2.926,0,0,1,1.192.748,3.128,3.128,0,0,1,.5.65A1.469,1.469,0,0,1,27.6,19.147ZM17.137,12.485a9.67,9.67,0,0,1,7.038-.667,17.4,17.4,0,0,1,1.15,3.47,1.625,1.625,0,0,0-1.239.449,1.34,1.34,0,0,0-.145.171,15.857,15.857,0,0,0-7.107-1.688,16.072,16.072,0,0,0-2.269.162A9.832,9.832,0,0,1,17.137,12.485ZM11.846,21.1a9.584,9.584,0,0,1,1.863-5.705,14.957,14.957,0,0,1,9.932,1.312,2.634,2.634,0,0,0,.235,1.286,29.588,29.588,0,0,0-11.244,6.949A9.64,9.64,0,0,1,11.846,21.1Zm9.47,9.654a9.649,9.649,0,0,1-8.286-5.013,28.7,28.7,0,0,1,11.291-7,4.129,4.129,0,0,0,1.389,1.184A17.649,17.649,0,0,1,21.316,30.754Zm8.829-5.346a9.635,9.635,0,0,1-7.684,5.3,18.52,18.52,0,0,0,4.081-10.5,2.214,2.214,0,0,0,.436.043,1.684,1.684,0,0,0,.932-.256A7.988,7.988,0,0,1,30.145,25.408Zm.671-1.765a10.605,10.605,0,0,0-2.363-4.3,2.209,2.209,0,0,0-.051-1.662,4.634,4.634,0,0,1,2.171.12,9.625,9.625,0,0,1,.581,3.308A9.415,9.415,0,0,1,30.816,23.643Z" transform="translate(-11 -10.6)" stroke="#000" stroke-miterlimit="10" stroke-width="0.5"/>
      </g>
    </g>
  </g>
</svg>
