<svg xmlns="http://www.w3.org/2000/svg" width="40.521" height="55.943" viewBox="0 0 40.521 55.943">
  <g id="Gruppe_443" data-name="Gruppe 443" transform="translate(-298 -214.028)">
    <g id="Gruppe_437" data-name="Gruppe 437" transform="translate(-6 -161)">
      <g id="Gruppe_79" data-name="Gruppe 79" transform="translate(233.427 375.028)">
        <g id="Gruppe_78" data-name="Gruppe 78" transform="translate(70.573)">
          <path id="Pfad_321" data-name="Pfad 321" d="M90.833,0a20.283,20.283,0,0,0-20.26,20.26c0,13.864,18.131,34.218,18.9,35.078a1.825,1.825,0,0,0,2.715,0c.772-.86,18.9-21.213,18.9-35.078A20.284,20.284,0,0,0,90.833,0Z" transform="translate(-70.573)" fill="#7ece96"/>
        </g>
      </g>
    </g>
    <g id="_015-social" data-name="015-social" transform="translate(250.2 172.218)">
      <g id="Gruppe_304" data-name="Gruppe 304" transform="translate(57.8 51.115)">
        <g id="Gruppe_303" data-name="Gruppe 303" transform="translate(0 0)">
          <path fill="#ffffff" id="Pfad_394" data-name="Pfad 394" d="M61.9,59.444h1.782a2.452,2.452,0,0,1,.613.079,3.367,3.367,0,0,1,.987-1.946,3.262,3.262,0,0,1,1.424-.993c.011-.006.017-.006.028-.011a4.155,4.155,0,1,0-6.974,1.543c.057.062.119.125.182.182A4.075,4.075,0,0,0,57.8,61.873v5.05a.826.826,0,0,0,.828.828h4.6a3.309,3.309,0,0,1,.136-1.328c-.006-.062-.006-.13-.006-.193a.54.54,0,0,1,.017-.142H59.463V61.873A2.44,2.44,0,0,1,61.9,59.444Zm.891-6.644A2.491,2.491,0,1,1,60.3,55.291,2.491,2.491,0,0,1,62.788,52.8Z" transform="translate(-57.8 -51.115)"/>
        </g>
      </g>
      <g id="Gruppe_306" data-name="Gruppe 306" transform="translate(69.459 51.115)">
        <g id="Gruppe_305" data-name="Gruppe 305" transform="translate(0 0)">
          <path fill="#ffffff" id="Pfad_395" data-name="Pfad 395" d="M270.264,58.3a4.155,4.155,0,1,0-6.8-1.748c.045.028.091.057.136.091a.568.568,0,0,1,.17.108c.006.006.017.011.023.017a4.618,4.618,0,0,1,.375.284,3.233,3.233,0,0,1,.885.687,2.729,2.729,0,0,1,.335.584.49.49,0,0,1,.2.3,1.848,1.848,0,0,0,.216.511.574.574,0,0,1,.068.255c.023.04.051.079.074.125a2.461,2.461,0,0,1,.584-.074h1.782a2.437,2.437,0,0,1,2.434,2.434v4.216h-3.961a1.8,1.8,0,0,1-.011.777,3.093,3.093,0,0,1,.04.885h4.766a.826.826,0,0,0,.828-.828v-5.05A4.1,4.1,0,0,0,270.264,58.3Zm-2.848-.522a2.491,2.491,0,1,1,2.491-2.491A2.491,2.491,0,0,1,267.415,57.776Z" transform="translate(-263.265 -51.115)"/>
        </g>
      </g>
      <g id="Gruppe_308" data-name="Gruppe 308" transform="translate(63.19 56.097)">
        <g id="Gruppe_307" data-name="Gruppe 307" transform="translate(0 0)">
          <path fill="#ffffff" id="Pfad_396" data-name="Pfad 396" d="M160.63,146.1a4.155,4.155,0,1,0-5.873-.182c.057.062.119.125.182.182a4.075,4.075,0,0,0-2.139,3.575v5.05a.826.826,0,0,0,.828.828h8.313a.826.826,0,0,0,.828-.828h0v-5.05A4.093,4.093,0,0,0,160.63,146.1Zm-2.848-5.5a2.491,2.491,0,1,1-2.491,2.491A2.491,2.491,0,0,1,157.782,140.594Zm3.325,13.3h-6.65v-4.216a2.437,2.437,0,0,1,2.434-2.434h1.782a2.437,2.437,0,0,1,2.434,2.434Z" transform="translate(-152.8 -138.915)"/>
        </g>
      </g>
    </g>
  </g>
</svg>
