<svg xmlns="http://www.w3.org/2000/svg" width="40.521" height="55.943" viewBox="0 0 40.521 55.943">
  <g id="Gruppe_430" data-name="Gruppe 430" transform="translate(-252 -368.028)">
    <g id="Gruppe_427" data-name="Gruppe 427" transform="translate(-52 -7)">
      <g id="Gruppe_79" data-name="Gruppe 79" transform="translate(233.427 375.028)">
        <g id="Gruppe_78" data-name="Gruppe 78" transform="translate(70.573)">
          <path id="Pfad_321" data-name="Pfad 321" d="M90.833,0a20.283,20.283,0,0,0-20.26,20.26c0,13.864,18.131,34.218,18.9,35.078a1.825,1.825,0,0,0,2.715,0c.772-.86,18.9-21.213,18.9-35.078A20.284,20.284,0,0,0,90.833,0Z" transform="translate(-70.573)" fill="#7ece96"/>
        </g>
      </g>
    </g>
    <g id="_001-shopping-cart" data-name="001-shopping-cart" transform="translate(261.326 378.333)">
      <path id="Pfad_338" data-name="Pfad 338" d="M22.95,14.294H34.912a2.468,2.468,0,0,0,2.463-2.463V6.745a.057.057,0,0,0,0-.027c0-.009,0-.022,0-.031s0-.018,0-.027a.286.286,0,0,1-.009-.031c0-.009,0-.018-.009-.027s0-.018-.009-.027a.218.218,0,0,1-.013-.031.1.1,0,0,0-.013-.022l-.013-.027c0-.009-.009-.013-.013-.022s-.013-.018-.018-.027a.078.078,0,0,0-.018-.022c0-.009-.013-.013-.018-.022s-.013-.013-.018-.022-.013-.013-.018-.018l-.022-.022c-.009,0-.013-.013-.022-.018s-.018-.013-.027-.018L37.1,6.29a.093.093,0,0,1-.027-.018l-.027-.013-.027-.013-.027-.013c-.009,0-.018,0-.027-.009a.083.083,0,0,0-.031-.009.193.193,0,0,1-.022,0,.1.1,0,0,0-.036,0s-.009,0-.018,0L21.7,4.108V1.993a.275.275,0,0,0,0-.062.034.034,0,0,0,0-.018c0-.013,0-.027,0-.04s0-.022-.009-.036,0-.013,0-.022l-.013-.04s0-.013,0-.018a.134.134,0,0,0-.018-.036s0-.013-.009-.018a.093.093,0,0,0-.018-.027c0-.009-.009-.013-.013-.022s-.009-.013-.013-.022-.013-.018-.018-.027l-.013-.013-.027-.027-.013-.013a.194.194,0,0,0-.031-.027s-.013-.009-.018-.013-.018-.013-.027-.022a.412.412,0,0,0-.036-.022s-.009,0-.013-.009l-.058-.027L18.038.048a.6.6,0,1,0-.468,1.111L20.487,2.39v13.2a2.466,2.466,0,0,0,2.146,2.441,2.431,2.431,0,1,0,4.515,1.249,2.386,2.386,0,0,0-.335-1.227H32.23a2.4,2.4,0,0,0-.335,1.227,2.432,2.432,0,1,0,2.432-2.432H22.95a1.26,1.26,0,0,1-1.258-1.258V13.955A2.491,2.491,0,0,0,22.95,14.294Zm3,4.979a1.227,1.227,0,1,1-1.227-1.227A1.229,1.229,0,0,1,25.948,19.273Zm9.61,0a1.227,1.227,0,1,1-1.227-1.227A1.229,1.229,0,0,1,35.559,19.273Zm-.647-6.184H22.95a1.26,1.26,0,0,1-1.258-1.258V5.322L36.17,7.316v4.511A1.261,1.261,0,0,1,34.912,13.089Z" transform="translate(-17.2 0)" fill="#fff" stroke="#fff" stroke-width="0.2"/>
    </g>
  </g>
</svg>
