<?xml version="1.0" encoding="utf-8"?>
<!-- Generator: Adobe Illustrator 23.0.1, SVG Export Plug-In . SVG Version: 6.00 Build 0)  -->
<svg version="1.1" id="Ebene_1" xmlns="http://www.w3.org/2000/svg" xmlns:xlink="http://www.w3.org/1999/xlink" x="0px" y="0px"
	 viewBox="0 0 997.8 604.8" style="enable-background:new 0 0 997.8 604.8;" xml:space="preserve">
<style type="text/css">
	.st0{fill:#84C293;}
	.st1{fill:#3B3B3B;}
</style>
<g>
	<path class="st0" d="M221.5,487.7c-5.2-5.9-9.5-10.6-13.8-15.5c-22-24.9-43.9-49.7-65.8-74.6c-2.6-3-5.4-4.3-9.4-4.3
		c-35,0.1-70-0.5-105,0.3C11.1,394.1,0.8,381,0.1,367.4c-0.1-1.7-0.1-3.3-0.1-5c0-110.7,0-221.3,0.1-332c0-4.4,0.4-9.1,1.8-13.2
		C5.1,6.9,14.6,0.3,25.3,0c0.7,0,1.3,0,2,0c313.7,0,627.3,0,941,0c14.7,0,26,8.6,28.9,22c0.5,2.4,0.6,5,0.6,7.5
		c0,111.3,0,222.7,0,334c0,9.5-3,17.6-10.4,23.9c-4.7,4-10.1,6.2-16.4,6.2c-16.8-0.1-33.7,0-50.5,0c-231.2,0-462.3,0-693.5,0
		c-10,0-9.8-2-9.2,10.2c1.2,26,2.4,51.9,3.6,77.9C221.5,483.1,221.5,484.7,221.5,487.7z M197.3,247c0.8,3.8,1.3,7.5,2.3,11.1
		c1.1,3.8,2.3,7.7,4.1,11.2c5.1,10.3,15,15.9,24.6,14.3c7.2-1.2,13.1-4.8,18.2-9.8c3.7-3.7,7.2-7.7,11.1-12c0,2.3-0.1,3.9,0,5.5
		c0.6,17.3,0.8,34.6,2,51.8c0.7,10.3,3.6,20.3,9.4,29.2c9.6,14.7,27.4,15.5,37.9,1.4c3.2-4.3,6-9.3,7.8-14.4
		c8.1-23,9.7-46.8,7.5-70.9c-0.7-8-2.5-15.9-3.9-24.2c2,0,3.8,0.2,5.6,0c4.7-0.6,6.7,1.1,6.5,6c-0.1,2.9,0.6,6,1.3,8.8
		c4.5,17.8,16.2,26.7,34.5,25.9c12.7-0.5,23.3-6.3,33-14c4.2-3.4,8.1-7.2,12.2-10.8c13.7,25.1,24.9,27.2,50.3,9.9
		c0.8,6.5-1.4,10.8-7.4,14.3c-10,6-19.5,12.8-28.7,19.9c-9,7-16.4,15.6-19.7,27c-5.5,19.6,6.8,35.9,27.1,35.6
		c10.6-0.2,20.5-3.3,27.3-11.5c6-7.2,11.3-15.3,15.3-23.7c7-14.8,9.6-31,12.2-47.2c0.3-1.7,0.6-3.9,1.8-4.9
		c8.7-8,17.5-15.7,26.6-23.7c0.4,1.8,0.8,3.5,1.2,5.2c3.9,16.9,18.9,24.7,34.9,18.1c8.1-3.4,14-9.4,19.3-16.2
		c2.8-3.6,5.3-7.5,7.6-10.8c2.4,7.2,4.1,14.8,7.4,21.5c6.8,14,21.1,18.3,34.5,10.2c5.9-3.6,10.7-8.9,15.9-13.5
		c1.5-1.4,2.7-3.1,4.2-4.8c9.4,14.5,26.9,20.1,47.3,0.7c0.8,0.8,1.6,1.7,2.3,2.5c6.3,7.7,14.4,11.6,24.4,11.2
		c10.4-0.4,18.1-6,25.4-12.6c2.9-2.6,5.3-5.9,8.2-9.2c6,9.1,11.9,16.2,22.5,16.7c10.2,0.4,17.9-5.2,25.5-11.1
		c0.6,0.7,1.1,1.1,1.5,1.7c11,16,24.9,21.9,44.1,17.3c17.6-4.2,30.4-14.7,36.8-32c0.9-2.4,0.4-6-0.8-8.4c-1.9-3.8-4.7-3.5-6.8,0.2
		c-5.1,9.1-12.3,15.7-22.1,19.2c-17,6.1-30.6-4.1-29.8-22.5c12.3-2.6,23.8-7.2,33.8-15c8.5-6.6,15.3-14.4,18.1-25
		c4.1-15.7-4.8-29.5-20.5-31.5c-8.3-1-16,1.5-22.7,6.1c-24.4,16.6-36.3,40-36.4,69.4c0,4-1.4,5.5-4.7,6.1c-5.2,1.1-9.9,0.1-12.8-4.6
		c-3.2-5.3-7.6-10.6-4-17.4c20-37.5,34.5-76.8,37.8-119.5c0.8-10.9-0.9-22.2-2.6-33.1c-1.1-7-5.8-12.5-13.3-14.1
		c-7.4-1.6-13.2,2-17.3,7.6c-4.4,6-8.5,12.4-11.6,19.1c-8.5,18.2-13.2,37.6-17,57.2c-1.4,7.1-2.5,14.2-3.7,20.9
		c-4.5,0.2-8.3,0-12,0.6c-11.5,2-20.4,8.7-28,17.2c-15.1,17.1-21.2,37.4-20.9,59.8c0,4.1-1.9,5.4-4.9,6.1c-4.6,1.2-8.5-0.5-9.8-6.1
		c-2-8.8-3.2-18-3.9-27c-0.3-3.9,1.2-8,2.2-12c2.4-9.4,5.7-18.7,7.3-28.3c1.1-6.7-3-11.9-8.4-13.8c-6.2-2.1-11.4,0-15.1,4.8
		c-3.2,4.1-6,8.9-7.8,13.8c-6.6,18.5-8.1,37.8-6.3,57.1c0.8,8.5-2.3,13.2-8.3,17.4c-8.7,6.2-15,4.7-17.7-5.5
		c-2.7-10.2-3.6-20.9-5-31.4c-0.8-6.3,1-11.9,3.6-17.7c3.3-7.2,5.8-14.9,7.7-22.5c1.6-6.7-2-13.5-7-15.7c-5.3-2.4-11.6-0.4-16.2,5.5
		c-1.9,2.5-3.9,5.2-4.8,8.1c-2.6,8.2-5.1,16.5-6.8,24.9c-1.4,7-0.3,14.7-2.6,21.2c-4.2,11.9-10.6,23-19.8,32.1
		c-6.8,6.7-13.2,4.8-14.8-4.7c-2.5-14.3-1.6-28.5,3.9-42.1c4.1-9.9,7.6-19.9,6.7-30.9c-0.6-8.3-6.4-12-13.4-7.6
		c-4.3,2.7-8.2,6.9-10.8,11.3c-6.5,10.8-9.6,22.9-11.4,35.4c-0.8,5.9,0.3,13.2-2.8,17.5c-6.8,9.6-15.7,17.7-23.7,26.4
		c-0.4-0.3-0.9-0.7-1.3-1c1.2-15.4,1.7-30.7,7.9-45.4c4-9.7,6.1-20,5.6-30.7c-0.2-5-1.8-9.3-6.5-11.6c-5-2.5-9.7-1.4-13.9,2.2
		c-0.6,0.5-1.3,1-1.8,1.4c-16.3-11.8-30.3-7.7-42.5,2.8c-15.7,13.5-24.1,31.1-27.9,51.1c-0.7,3.9-0.1,8.7-2.2,11.5
		c-6.7,9.1-15.1,16.6-26.5,19.4c-12.5,3.1-20.5-1.8-24-13.9c-1.1-3.8-0.6-5.5,3.6-6.7c14-3.9,26.5-10.9,36.3-21.8
		c8.3-9.2,12.7-19.8,11.4-32.4c-0.9-9.2-6.5-15.9-15.5-17.9c-11.5-2.6-21.4,1.7-30.4,8.1c-15.8,11.3-25.5,26.9-30.9,45.4
		c-3,10.5-4,11.1-15,9.3c-1.3-0.2-2.7-0.3-3.9-0.7c-1.2-0.4-2.6-1-3.2-1.9c-4.9-7.7-9.7-15.4-14.7-23.5c1.4-2.3,3.2-5.3,5-8.3
		c14.1-24.2,25.9-49.2,28.9-77.5c1.2-10.7,1.2-21.3-2.5-31.6c-5.2-14.3-19.5-17.9-30.8-7.6c-3,2.8-5.8,6.1-7.7,9.7
		c-3.4,6.4-6.6,13.1-8.9,20c-8.3,24.9-11.8,50.8-15.1,76.7c-0.5,3.9-1,7-5.1,9.4c-2.5,1.5-4.8,5.7-4.6,8.6c0.2,4.9,2.3,9.8,3.7,14.7
		c0.5,1.7,1.8,3.4,1.7,5c-0.5,7.1-0.9,14.4-5.8,20.2c-4.6,5.4-8.6,11.5-14,16c-6.2,5.2-12.2,2.8-14.5-4.9c-1.3-4.1-2-8.4-2.3-12.7
		c-1.1-14.7-1.2-29.2,4.9-43.1c3.5-7.9,5.9-16.3,4.5-25.2c-0.8-4.9-3.3-8.7-8.3-10.3c-4.8-1.6-9.1-0.3-12.3,3.2
		c-2.7,3.1-5.7,6.5-6.9,10.2c-3.2,9.9-5.7,20.1-8.1,30.2c-1.2,5.3-0.4,11.4-2.7,16.1c-4.6,9.3-10.5,18.1-16.5,26.7
		c-2.3,3.3-5.8,6-9.3,8.2c-5.4,3.4-10.1,2.2-12-3.8c-5.1-15.6-10.6-31.5,1.2-46.8c1.2-1.6,2.1-3.4,3.1-5.1
		c16.1-28.2,30.3-57.1,34.2-89.9c1.3-11,1.1-22-2.5-32.6c-2.5-7.2-6.9-12.5-15.1-13.4c-6.3-0.7-11.3,2.1-15.6,6.3
		c-7.5,7.4-12.3,16.6-15.8,26.3c-17.7,48.8-25.3,99.2-20.6,151c0.8,9,3.9,18.3,7.9,26.5c5.8,11.9,18.6,15.4,30.3,9.1
		c5.8-3.1,11.2-7.4,15.6-12.2C186.7,261.7,191.6,254.3,197.3,247z M692.2,107.3c0.1-9.5-5.7-15.5-15.3-16
		c-15.9-0.7-27.2,14.7-22.7,30.9c2.7,9.6,10,13.6,19.6,10.8C684.6,129.7,692.1,119.3,692.2,107.3z M215.5,120.1
		c0.1,0.6,0.2,2.6,0.6,4.5c2.8,11.5,10.9,15.3,21.5,9.9c7.9-4.1,13.4-10.4,15.9-19c3.5-12-3.3-21.1-15.8-21.2
		C224.8,94.2,215.5,104.5,215.5,120.1z"/>
	<path class="st0" d="M434.9,228.3c0.7-15,3.6-26.1,11.2-35.6c4.8-6,9.9-7.9,15-5.7c6.7,2.8,11.3,10.1,10.4,16.9
		c-1.3,9.4-2.2,18.9-4.4,28.1c-2.1,8.6-8.2,14.4-16.6,17.1c-4.9,1.6-9.2-0.1-11.1-5.1C437,238.1,435.8,231.7,434.9,228.3z"/>
	<path class="st0" d="M739,204.5c1.1,9.6,2.1,19.1,3.1,28.7c0.1,1.4,0.3,3.1-0.3,4.3c-3.1,5.8-13.5,10.8-20.1,9.8
		c-4.8-0.7-8.1-3.6-9.5-7.9c-5.8-17.8-3.9-34.8,6.7-50.4c2.7-4.1,6.8-6.4,12.1-4.4c5.5,2,9,6.9,8.8,12.4c-0.1,2.5,0,5,0,7.5
		C739.6,204.5,739.3,204.5,739,204.5z"/>
	<path class="st0" d="M286.2,233c5.1,1.6,8.7,2.5,12,3.8c1.3,0.5,2.6,2,3.1,3.4c6.6,19.9,7.1,40.2,2.6,60.5c-0.9,4.2-2,9.6-7.8,9.6
		c-5.8,0-6.5-5.5-7.7-9.7c-1.2-4.5-2.1-9.1-2.2-13.7C286.1,269.3,286.2,251.7,286.2,233z"/>
	<path class="st0" d="M792.7,91.2c0.8,3.2,1.7,5.6,1.9,8.1c1.3,18.7-2.7,36.8-8.2,54.5c-4.8,15.3-10.9,30.2-17.1,45.1
		C765.2,174.4,781.2,100,792.7,91.2z"/>
	<path class="st0" d="M153.1,182.6c3.2-16.3,5.9-32.7,9.7-48.8c2.3-10,6.1-19.6,9.3-29.4c0.5-1.6,1.4-3.1,2.4-4.3
		c0.8-0.9,2.2-2,3.1-1.9c0.9,0.1,2,1.8,2.1,2.9c0.1,6.4,0.7,13-0.3,19.3c-3.4,22.7-13.3,43-24.4,62.7
		C154.4,182.9,153.7,182.7,153.1,182.6z"/>
	<path class="st0" d="M459.7,295.8c-2,14.9-2.4,29.7-9.3,43.2c-1.9,3.8-4.9,6.4-9.6,5.5c-4.4-0.9-5.8-4.5-6.7-8.4
		c-1.7-7.1-0.3-13.8,3.2-20.1C441.2,308.8,451,299.9,459.7,295.8z"/>
	<path class="st0" d="M357,221.5c1.1-12.7,3-24.3,11.9-33.1c2.3-2.3,5.8-3.9,9-4.4c4.9-0.8,8,2.4,8.6,7.4c0.6,5.4-1.2,10.1-4.6,14.2
		C375.6,213.3,367.2,217.7,357,221.5z"/>
	<path class="st0" d="M312.9,105c0.4,4.1,1.2,8.2,1.1,12.3c-0.4,15.6-5.5,30-12.2,43.9c-2.8,5.8-5.9,11.5-9.2,17
		c4.2-25,5.9-50.5,17.5-73.4C311,104.8,312,104.9,312.9,105z"/>
	<path class="st0" d="M819.6,221c1.3-12.6,4.9-23.8,13-33.2c2.9-3.3,6.5-6.6,11.2-4.3c4.5,2.2,3.1,6.9,2.7,10.8
		C845.1,206,833.9,217.3,819.6,221z"/>
</g>
<g>
	<path class="st1" d="M310.6,472.3v24.1h-6.1v-20.2c0-10.4-0.5-15.8-7.9-15.8c-6.7,0-11.5,4.9-12.5,8.5v27.4h-6.1v-30.4l-0.2-9.7
		h5.3l0.5,5.9c3.2-4.3,8.8-6.9,14.3-6.9C306.8,455.2,310.6,461.1,310.6,472.3z"/>
	<path class="st1" d="M329.4,497.3c-6.6,0-12.2-3.5-12.2-11c0-10.6,10.2-12,20.5-13.5l4-0.5v-4.6c0-4.9-2.4-7.4-7.9-7.4
		c-4.4,0-9.2,1.1-12.5,2.7l-1.7-4.8c3.1-1.6,8.4-3.1,14.1-3.1c8,0,14.2,2.6,14.2,11.6v29.5h-5L342,492
		C338.4,495.9,333.6,497.3,329.4,497.3z M341.8,486.6v-9.9c0,0-3.6,0.5-3.7,0.5c-11.4,1.5-14.8,3.3-14.8,8.9c0,4.5,2.9,6.4,6.7,6.4
		C333.9,492.5,339.2,490.2,341.8,486.6z"/>
	<path class="st1" d="M385.7,493.6c-2.6,2.5-6.9,3.7-10.9,3.7c-12.5,0-19.3-9.8-19.3-21c0.1-11.1,7.3-21.1,19.3-21.1
		c4.6,0,8.7,1.3,10.9,3.5l-1.6,4.3c-3.1-2-6.4-2.8-9.5-2.8c-7.3,0-13,6.8-13,16.1c0,9.2,5.4,15.8,13.4,15.8c3.6,0,6.8-1.4,9.1-3
		L385.7,493.6z"/>
	<path class="st1" d="M397.8,496.4h-6.1v-54.6l6.1-0.7v20.5c3.4-4.1,8.2-6.4,14.3-6.4c8.4,0,12.2,6.3,12.2,16.9v24.3h-6.1v-22.6
		c0-9.1-1.3-13.3-8.1-13.3c-6.2,0-11.3,4.7-12.3,8.5V496.4z"/>
	<path class="st1" d="M439.5,496.4h-6.1v-54.6l6.1-0.7v20.5c3.4-4.1,8.2-6.4,14.3-6.4c8.4,0,12.2,6.3,12.2,16.9v24.3h-6.1v-22.6
		c0-9.1-1.3-13.3-8.1-13.3c-6.2,0-11.3,4.7-12.3,8.5V496.4z"/>
	<path class="st1" d="M484.9,497.3c-6.6,0-12.2-3.5-12.2-11c0-10.6,10.2-12,20.5-13.5l4-0.5v-4.6c0-4.9-2.4-7.4-8-7.4
		c-4.4,0-9.2,1.1-12.5,2.7l-1.7-4.8c3.1-1.6,8.4-3.1,14.1-3.1c7.9,0,14.2,2.6,14.2,11.6v29.5h-5l-0.9-4.4
		C493.9,495.9,489.1,497.3,484.9,497.3z M497.3,486.6v-9.9c0,0-3.6,0.5-3.7,0.5c-11.4,1.5-14.8,3.3-14.8,8.9c0,4.5,2.8,6.4,6.7,6.4
		C489.3,492.5,494.6,490.2,497.3,486.6z"/>
	<path class="st1" d="M519.2,480.6c0,8.8,0.2,11.5,4.4,11.5c0.9,0,1.4-0.1,3.3-0.2l0.4,4.8c-2.1,0.4-3.5,0.5-4.1,0.5
		c-9.9,0-10.1-4.6-10.1-17.9v-37.4l6.1-0.7V480.6z"/>
	<path class="st1" d="M539.5,483c0,7.5,0.9,9.1,5.8,9.1c0.7,0,2.2-0.2,5-0.4l0.5,4.9c-4.6,0.4-5.7,0.5-7,0.5
		c-9.8,0-10.5-4.8-10.5-17v-19.6h-6.1l0.5-4.3h5.6l1.6-13l4.6-0.4v13.3h10.7v4.3h-10.7V483z"/>
	<path class="st1" d="M563.2,448.8h-6.2v-7.2h6.2V448.8z M563.2,496.4h-6.2v-40.2h6.2V496.4z"/>
	<path class="st1" d="M579.3,509.2h7.5c12.6,0,14-5.8,14-15.9v-3.5c-2.6,3.8-6.1,6.6-12.4,6.6c-11.8,0-17.2-10.7-17.2-19.9
		c0-11.4,5.5-21.2,17.7-21.2c5.3,0,9.1,2.2,12.1,6.4v-5.4h5.9v37.3c0,10.4-1.6,21.3-20.3,21.3h-6.5L579.3,509.2z M601.1,477.5v-3
		c0-7.6-3.3-14-11.6-14c-8.6,0-11.9,8.6-11.9,15.6c0,6.9,3.6,15.1,11.8,15.1C598,491.1,601.1,484.7,601.1,477.5z"/>
	<path class="st1" d="M641.1,480.6c0,8.8,0.2,11.5,4.4,11.5c0.9,0,1.4-0.1,3.3-0.2l0.4,4.8c-2.1,0.4-3.5,0.5-4.1,0.5
		c-9.9,0-10.1-4.6-10.1-17.9v-37.4l6.1-0.7V480.6z"/>
	<path class="st1" d="M670,497.3c-11.5,0-18.4-8.2-18.4-21.1c0-12,7.2-20.7,17.7-21c10,0,16.2,7.6,16.2,19.4c0,0.6-0.1,2.1-0.1,2.8
		h-27.5c0,9.1,5.3,14.6,12.4,14.6c5.7,0,9.9-2.1,12.7-4l1.9,4.5C681.6,495.3,676.5,497.3,670,497.3z M658.1,473.1h21.4
		c0-8.5-4.3-12.9-10.3-12.9C663.2,460.2,658.8,465.3,658.1,473.1z"/>
	<path class="st1" d="M712,497.3c-5.4,0-10.1-2.6-12.6-6.9v6h-6.1v-54.6l6.2-0.7v21.2c3.1-5.2,8.3-7.1,12.7-7.1
		c11.2,0,16.9,9.9,16.9,20.6C729,487.5,723.4,497.3,712,497.3z M711.5,492.3c8.6,0,11.2-8.7,11.2-16c0-7.2-2.5-15.9-11-15.9
		c-7,0.1-12.3,6.4-12.3,15.9C699.4,484.9,703.1,492.3,711.5,492.3z"/>
	<path class="st1" d="M753.5,497.3c-11.5,0-18.4-8.2-18.4-21.1c0-12,7.2-20.7,17.7-21c10,0,16.2,7.6,16.2,19.4
		c0,0.6-0.1,2.1-0.1,2.8h-27.5c0,9.1,5.3,14.6,12.4,14.6c5.7,0,9.9-2.1,12.7-4l1.9,4.5C765,495.3,759.9,497.3,753.5,497.3z
		 M741.6,473.1H763c0-8.5-4.3-12.9-10.3-12.9C746.6,460.2,742.2,465.3,741.6,473.1z"/>
	<path class="st1" d="M809.3,472.3v24.1h-6.1v-20.2c0-10.4-0.5-15.8-7.9-15.8c-6.8,0-11.5,4.9-12.5,8.5v27.4h-6.1v-30.4l-0.2-9.7
		h5.3l0.5,5.9c3.2-4.3,8.8-6.9,14.3-6.9C805.5,455.2,809.3,461.1,809.3,472.3z"/>
	<path class="st1" d="M843.9,448.8h-6.2v-7.2h6.2V448.8z M843.9,496.4h-6.2v-40.2h6.2V496.4z"/>
	<path class="st1" d="M886.2,472.3v24.1H880v-20.2c0-10.4-0.5-15.8-7.9-15.8c-6.8,0-11.5,4.9-12.5,8.5v27.4h-6.1v-30.4l-0.2-9.7h5.3
		l0.5,5.9c3.2-4.3,8.8-6.9,14.3-6.9C882.4,455.2,886.2,461.1,886.2,472.3z"/>
	<path class="st1" d="M313.7,546.2h6.2V573c0,7.2,4.3,9.2,10,9.2c5.7,0,9.9-2.1,9.9-9.2v-26.8h6.1V573c0,10.6-7.6,14.3-16,14.3
		s-16.2-3.8-16.2-14.3V546.2z"/>
	<path class="st1" d="M387.7,562.3v24.1h-6.1v-20.2c0-10.4-0.5-15.8-7.9-15.8c-6.8,0-11.5,4.9-12.5,8.5v27.4H355v-30.4l-0.2-9.7h5.3
		l0.5,5.9c3.2-4.3,8.8-6.9,14.3-6.9C383.9,545.2,387.7,551.1,387.7,562.3z"/>
	<path class="st1" d="M412.1,587.3c-10.9,0-17.2-8.9-17.2-21.4c0-11.4,6.8-20.6,16.9-20.6c5.3,0,10.6,2.5,12.7,6.8v-20.2l6.1-0.7
		v55.3h-5.5l-0.8-6.3C422.2,584.2,417.7,587.3,412.1,587.3z M412.5,581.8c8.2,0,12.1-7,12.1-15.6c0-8.6-3.6-15.6-12.1-15.6
		c-8.2,0-11.2,8.1-11.2,15.4C401.3,573.9,404.2,581.8,412.5,581.8z"/>
	<path class="st1" d="M457.8,546.2h6.2V573c0,7.2,4.3,9.2,10,9.2c5.7,0,9.9-2.1,9.9-9.2v-26.8h6.1V573c0,10.6-7.6,14.3-16,14.3
		s-16.2-3.8-16.2-14.3V546.2z"/>
	<path class="st1" d="M499.1,586.4v-30c0-3.4-0.2-9-0.2-10.2h5.3l0.5,6c3.5-4.7,8.5-7,13.6-7c5.6,0,9.5,2,11.3,7.4
		c3.5-5.4,8.2-7.4,13.9-7.4c9.1,0,12.4,6.3,12.4,15.7v25.5h-6.2v-21c0-9.1-0.4-14.8-7.2-14.8c-5.1,0-9.5,3.7-11.3,9.1v26.8h-6.1
		v-22.3c0-8.2-1.4-13.6-7.5-13.6c-6.2,0-11,4.3-12.4,8.4v27.4H499.1z"/>
	<path class="st1" d="M613.7,569.1h-21.7l-6.5,17.3h-6.6l20.4-54.7h7.8l19.3,54.7h-6.6L613.7,569.1z M611.5,564l-8.3-26.1L594,564
		H611.5z"/>
	<path class="st1" d="M630.4,546.2h6.2V573c0,7.2,4.3,9.2,10,9.2c5.7,0,9.9-2.1,9.9-9.2v-26.8h6.1V573c0,10.6-7.6,14.3-16,14.3
		s-16.2-3.8-16.2-14.3V546.2z"/>
	<path class="st1" d="M678.1,599.2h7.5c12.6,0,14-5.8,14-15.9v-3.5c-2.6,3.8-6.1,6.6-12.4,6.6c-11.8,0-17.2-10.7-17.2-19.9
		c0-11.4,5.5-21.2,17.7-21.2c5.3,0,9.1,2.2,12.1,6.4v-5.4h5.9v37.3c0,10.4-1.6,21.3-20.3,21.3h-6.5L678.1,599.2z M699.9,567.5v-3
		c0-7.6-3.3-14-11.6-14c-8.6,0-11.9,8.6-11.9,15.6c0,6.9,3.6,15.1,11.8,15.1C696.8,581.1,699.9,574.7,699.9,567.5z"/>
	<path class="st1" d="M740.9,575.6c-0.2,7.6-5.6,11.7-13.3,11.7c-6.1,0-11.5-2-13.9-3.8l1.6-4.7c1.5,1,5.9,3.4,11.4,3.4h0.6
		c4.6,0,7.5-2.2,7.9-6.4v-0.4c0-2.5-1.6-5-6.1-6.2l-5.3-1.5c-8-2.2-10.3-6.2-10.4-11.1c0-5.6,4.4-11.2,13.4-11.3
		c5.2,0,9.1,1,12.1,2.6l-1.4,4.4c-2.2-0.9-5.9-2.2-10.3-2.2s-7.7,2.3-7.7,6.5c0,2.5,1.4,4.4,5.8,5.5l5.5,1.5
		c6.5,1.7,10.1,5.2,10.1,11.8V575.6z"/>
	<path class="st1" d="M766.7,587.3c-5.4,0-10.1-2.6-12.6-6.9v6H748v-54.6l6.2-0.7v21.2c3.1-5.2,8.3-7.1,12.7-7.1
		c11.2,0,16.9,9.9,16.9,20.6C783.7,577.5,778.1,587.3,766.7,587.3z M766.3,582.3c8.6,0,11.2-8.7,11.2-16c0-7.2-2.5-15.9-11-15.9
		c-7,0.1-12.3,6.4-12.3,15.9C754.1,574.9,757.8,582.3,766.3,582.3z"/>
	<path class="st1" d="M791.1,546.2h6.2V573c0,7.2,4.3,9.2,10,9.2c5.7,0,9.9-2.1,9.9-9.2v-26.8h6.1V573c0,10.6-7.6,14.3-16,14.3
		s-16.2-3.8-16.2-14.3V546.2z"/>
	<path class="st1" d="M832.5,586.4v-31c0-3.2-0.1-6.1-0.1-9.2h5.2l0.5,7c2.8-5.2,7-7,11.8-7h1.1l0.5,5.6h-1.5c-7.5,0-11.2,5-11.2,11
		v23.5H832.5z"/>
	<path class="st1" d="M862.5,599.2h7.5c12.6,0,14-5.8,14-15.9v-3.5c-2.6,3.8-6.1,6.6-12.4,6.6c-11.8,0-17.2-10.7-17.2-19.9
		c0-11.4,5.5-21.2,17.7-21.2c5.3,0,9.1,2.2,12.1,6.4v-5.4h5.9v37.3c0,10.4-1.6,21.3-20.3,21.3h-6.5L862.5,599.2z M884.2,567.5v-3
		c0-7.6-3.3-14-11.6-14c-8.6,0-11.9,8.6-11.9,15.6c0,6.9,3.6,15.1,11.8,15.1C881.1,581.1,884.2,574.7,884.2,567.5z"/>
</g>
</svg>
